<svg width="1490" height="838" viewBox="0 0 1490 838" fill="none" xmlns="http://www.w3.org/2000/svg">
<g clip-path="url(#clip0)">
<path d="M1490 0H0V838H1490V0Z" fill="#32275F"/>
<path d="M124.167 838C124.167 838 26.3233 269.246 596 0H1490V838H124.167Z" fill="#44436E"/>
<path d="M630.922 838C630.922 838 516.068 63.1216 1320.82 0.256056L1490 0V838H630.922Z" fill="#32275F"/>
<path d="M766.807 413.749C771.577 413.749 775.444 409.882 775.444 405.113C775.444 400.343 771.577 396.477 766.807 396.477C762.036 396.477 758.169 400.343 758.169 405.113C758.169 409.882 762.036 413.749 766.807 413.749Z" fill="#EEFF15"/>
<path d="M767.117 417.448C773.76 417.448 779.146 412.064 779.146 405.421C779.146 398.779 773.76 393.395 767.117 393.395C760.474 393.395 755.088 398.779 755.088 405.421C755.088 412.064 760.474 417.448 767.117 417.448Z" fill="url(#paint0_radial)"/>
<path d="M897.08 195.329C900.989 195.329 904.158 192.16 904.158 188.252C904.158 184.344 900.989 181.176 897.08 181.176C893.172 181.176 890.003 184.344 890.003 188.252C890.003 192.16 893.172 195.329 897.08 195.329Z" fill="#EEFF15"/>
<path d="M897.337 198.357C902.78 198.357 907.192 193.945 907.192 188.503C907.192 183.06 902.78 178.648 897.337 178.648C891.894 178.648 887.481 183.06 887.481 188.503C887.481 193.945 891.894 198.357 897.337 198.357Z" fill="url(#paint1_radial)"/>
<path d="M1388 752.593C1393.23 752.593 1397.47 748.476 1397.47 743.398C1397.47 738.32 1393.23 734.203 1388 734.203C1382.76 734.203 1378.52 738.32 1378.52 743.398C1378.52 748.476 1382.76 752.593 1388 752.593Z" fill="#EEFF15"/>
<path d="M1388.34 756.527C1395.62 756.527 1401.53 750.795 1401.53 743.725C1401.53 736.654 1395.62 730.922 1388.34 730.922C1381.05 730.922 1375.15 736.654 1375.15 743.725C1375.15 750.795 1381.05 756.527 1388.34 756.527Z" fill="url(#paint2_radial)"/>
<path d="M1148.74 207.631C1151.67 207.631 1154.04 205.401 1154.04 202.649C1154.04 199.898 1151.67 197.668 1148.74 197.668C1145.82 197.668 1143.45 199.898 1143.45 202.649C1143.45 205.401 1145.82 207.631 1148.74 207.631Z" fill="#EEFF15"/>
<path d="M1148.93 209.424C1153 209.424 1156.3 206.315 1156.3 202.48C1156.3 198.644 1153 195.535 1148.93 195.535C1144.86 195.535 1141.56 198.644 1141.56 202.48C1141.56 206.315 1144.86 209.424 1148.93 209.424Z" fill="url(#paint3_radial)"/>
<path d="M871.813 528.344C878.889 528.344 884.625 522.608 884.625 515.533C884.625 508.458 878.889 502.723 871.813 502.723C864.737 502.723 859 508.458 859 515.533C859 522.608 864.737 528.344 871.813 528.344Z" fill="#EEFF15"/>
<path d="M872.271 533.837C882.129 533.837 890.12 525.847 890.12 515.991C890.12 506.135 882.129 498.145 872.271 498.145C862.413 498.145 854.422 506.135 854.422 515.991C854.422 525.847 862.413 533.837 872.271 533.837Z" fill="url(#paint4_radial)"/>
<path d="M1326.73 100.125C1332.7 100.125 1337.54 95.2859 1337.54 89.3165C1337.54 83.347 1332.7 78.5078 1326.73 78.5078C1320.76 78.5078 1315.92 83.347 1315.92 89.3165C1315.92 95.2859 1320.76 100.125 1326.73 100.125Z" fill="#EEFF15"/>
<path d="M1327.12 104.75C1335.43 104.75 1342.17 98.011 1342.17 89.6975C1342.17 81.384 1335.43 74.6445 1327.12 74.6445C1318.8 74.6445 1312.06 81.384 1312.06 89.6975C1312.06 98.011 1318.8 104.75 1327.12 104.75Z" fill="url(#paint5_radial)"/>
<path d="M1304.23 501.553C1308.85 501.553 1312.59 497.812 1312.59 493.197C1312.59 488.581 1308.85 484.84 1304.23 484.84C1299.62 484.84 1295.87 488.581 1295.87 493.197C1295.87 497.812 1299.62 501.553 1304.23 501.553Z" fill="#EEFF15"/>
<path d="M1304.53 505.129C1310.95 505.129 1316.17 499.918 1316.17 493.49C1316.17 487.062 1310.95 481.852 1304.53 481.852C1298.1 481.852 1292.89 487.062 1292.89 493.49C1292.89 499.918 1298.1 505.129 1304.53 505.129Z" fill="url(#paint6_radial)"/>
<path d="M804.84 103.965C804.84 103.965 779.022 109.195 751.899 137.578L770.338 156.363C770.338 156.371 800.215 129.524 804.84 103.965Z" fill="#CA7073"/>
<path d="M751.899 137.578C751.899 137.578 737.279 151.56 729.906 162.206L745.815 178.415C745.815 178.415 757.898 169.298 770.338 156.363L751.899 137.578Z" fill="#CA7073"/>
<path d="M734.555 156.124L725.242 154.199L714.083 165.148L722.363 173.582L731.893 164.232L734.555 156.124Z" fill="#CA7073"/>
<path d="M751.573 173.68L753.319 183.03L742.168 193.978L733.887 185.544L743.409 176.194L751.573 173.68Z" fill="#CA7073"/>
<path d="M743.002 164.764L727.948 179.535L728.312 179.906L743.366 165.135L743.002 164.764Z" fill="#CA7073"/>
<path d="M779.518 135.288C783.033 135.288 785.882 132.439 785.882 128.925C785.882 125.411 783.033 122.562 779.518 122.562C776.004 122.562 773.155 125.411 773.155 128.925C773.155 132.439 776.004 135.288 779.518 135.288Z" fill="#706D9C"/>
<path d="M1081.03 336.753C1081.03 336.753 1207.61 357.703 1243.26 435.683C1278.91 513.664 1211.04 589.526 1117.5 581.945C1060.07 577.29 918.057 563.323 852.87 628.501C787.682 693.679 930.474 789.893 1195.1 783.686C1459.73 777.479 1434.83 479.671 1434.83 479.671C1434.83 479.671 1447.9 110.819 951.326 110.5C951.326 110.5 820.268 110.182 784.57 125.701V125.833C784.57 125.833 855.19 110.958 951.419 113.286C1047.65 115.614 1417.04 145.099 1410.06 479.523C1410.06 479.523 1394.54 702.214 1206.74 712.301C1206.74 712.301 959.18 731.699 901.753 677.757C864.084 642.374 897.096 626.173 897.096 626.173C897.096 626.173 923.784 590.589 1125.25 603.671C1244.76 611.43 1282.01 512.112 1262.61 450.814C1242.25 386.474 1205.18 362.77 1090.33 321.444L1081.03 336.753Z" fill="#F3FFFF"/>
<path d="M837.349 662.407C837.349 662.407 831.917 783.685 1174.49 783.972C1174.49 783.972 1379.03 803.859 1422.86 601.086C1422.86 601.086 1365.83 758.863 1207.52 766.622C1207.52 766.614 906.417 792.22 837.349 662.407Z" fill="#BAB4FF"/>
<path d="M935.13 277.005C931.692 269.812 934.121 267.081 934.121 267.081C934.121 267.081 937.559 261.246 941.439 262.022C945.32 262.798 945.32 259.694 945.32 259.694C945.32 259.694 946.872 255.814 941.439 255.038C936.007 254.263 932.949 258.282 932.949 258.282C932.996 256.094 932.949 253.696 932.949 253.696C932.352 242.073 927.781 243.865 927.781 243.865C921.658 245.735 925.143 252.718 925.143 252.718C925.143 252.718 922.97 247.24 922.038 244.183C921.107 241.126 920.486 240.226 918.934 240.304C917.382 240.381 916.443 241.817 915.83 244.959C915.217 248.102 918.158 253.494 918.158 253.494C916.288 247.372 912.726 247.287 912.726 247.287C912.726 247.287 909.622 245.735 909.622 251.167C909.622 256.598 914.278 260.478 914.278 260.478C914.278 260.478 909.622 253.494 906.518 252.718C903.413 251.943 902.637 253.494 902.637 253.494C902.637 253.494 899.533 256.598 904.965 262.805C910.398 269.013 912.726 274.444 912.726 274.444C915.054 280.652 921.93 283.996 921.93 283.996L921.542 283.608C921.542 283.608 915.333 289.815 919.214 295.247C939.104 323.095 949.091 321.24 949.091 321.24C937.451 335.207 939.003 360.037 939.003 360.037C925.81 370.9 924.258 394.953 924.258 394.953C924.258 394.953 919.602 423.663 931.242 445.389C942.883 467.115 959.568 475.875 959.568 475.875C957.24 483.471 959.568 486.901 959.568 486.901C971.208 498.54 988.281 490.78 988.281 490.78C988.281 495.436 992.161 505.523 1006.91 504.747C1021.65 503.971 1020.88 484.573 1027.86 466.727C1034.84 448.88 996.818 447.321 996.818 447.321C1006.91 442.657 996.818 435.69 996.818 435.69C1066.66 419.395 1064.33 386.03 1064.33 386.03C1065.23 395.287 1068.65 409.665 1068.99 424.051C1069.53 447.057 1066.66 469.83 1066.66 469.83C1066.66 469.83 1064.33 476.814 1064.33 488.453C1064.33 500.091 1068.99 498.54 1068.99 498.54C1075.2 496.988 1074.42 490.004 1074.42 490.004C1074.42 490.004 1074.42 494.66 1075.2 497.764C1075.97 500.867 1078.3 501.643 1079.85 501.643C1081.41 501.643 1082.96 500.867 1083.73 497.764C1084.51 494.66 1082.96 489.228 1082.96 489.228C1084.51 495.436 1087.61 494.66 1087.61 494.66C1091.49 493.884 1093.05 490.78 1091.49 486.901C1089.76 482.579 1086.06 478.365 1086.06 478.365C1086.06 478.365 1091.49 477.59 1092.27 465.951C1092.75 458.735 1110.19 404.777 1117.1 382.151C1121.35 368.262 1124.77 349.717 1124.48 345.294C1123.7 333.655 1101.97 317.361 1101.97 317.361C1105.45 316.476 1112.56 313.823 1118.27 309.602C1121.88 306.925 1126.21 302.44 1129.91 294.083C1134.2 284.384 1132.83 277.556 1132.24 272.357C1130.45 256.746 1119.27 229.619 1094.99 216.49C1091.71 214.721 1073.89 205.891 1044.13 218.756C1016.7 230.62 1006.1 252.137 1003.8 255.675C997.904 264.769 999.922 275.073 999.922 275.073C963.448 271.193 941.331 283.22 935.51 277.401L935.13 277.005Z" fill="#F3FFF1"/>
<path d="M1008.08 275.453C1008.08 275.453 1005.75 244.416 1042.22 226.57C1042.22 226.57 1089.56 222.69 1112.84 257.607C1112.84 257.607 1107.41 281.66 1084.13 304.938C1084.13 304.938 1049.98 277.005 1008.08 275.453Z" fill="#050034"/>
<path d="M1095.41 216.699C1120.31 230.301 1130.75 255.108 1132.8 270.867C1133.48 276.12 1134.52 284.965 1130.3 294.672C1126.66 303.044 1120.76 308.251 1117.12 310.897C1111.38 315.063 1105.75 316.871 1102.23 317.709L1090.34 308.817C1090.34 308.817 1113.91 302.726 1119.05 277.004C1126.25 240.962 1095.41 216.699 1095.41 216.699Z" fill="#BAB4FF"/>
<path d="M1124.48 344.51C1124.48 344.51 1119.41 357.46 1115.17 373.995C1109.86 394.736 1102 423.623 1094.22 445.38C1088.71 460.798 1085.67 471.118 1080.93 475.106C1080.93 475.106 1078.17 478.373 1072.37 478.629C1072.37 478.629 1087.06 482.695 1090.58 474.671C1094.09 466.648 1104.77 423.701 1107.31 415.724C1109.86 407.748 1120.22 379.752 1123.22 359.959C1126.21 340.165 1124.48 344.51 1124.48 344.51Z" fill="#BAB4FF"/>
<path d="M1060.85 350.719C1060.85 350.719 1060.85 364.685 1064.34 386.023C1067.83 407.361 1032.14 428.311 996.826 435.683C996.826 435.683 1012.73 400.378 988.677 391.843C988.677 391.843 1042.6 423.943 1060.85 350.719Z" fill="#BAB4FF"/>
<path d="M988.289 490.771C988.289 490.771 991.005 481.848 992.557 474.089C992.557 474.089 943.667 458.57 953.755 407.359C953.755 407.359 938.653 458.082 983.843 479.668C983.843 479.668 986.489 491.997 963.526 490.027C963.526 490.027 972.38 497.367 988.289 490.771Z" fill="#BAB4FF"/>
<path d="M918.833 294.852C918.833 294.852 942.115 318.905 964.62 308.042C964.62 308.042 955.307 313.474 949.099 321.233C949.099 321.233 939.104 325.547 918.833 294.852Z" fill="#BAB4FF"/>
<path d="M1019.8 270.851C1019.8 270.851 1017.41 251.298 1035.24 236.656L1039.9 275.453C1039.9 275.453 1032.14 271.573 1019.8 270.851Z" fill="#FAFFDF"/>
</g>
<defs>
<radialGradient id="paint0_radial" cx="0" cy="0" r="1" gradientUnits="userSpaceOnUse" gradientTransform="translate(767.117 405.421) scale(12.0287 12.0269)">
<stop stop-color="white"/>
<stop offset="0.2156" stop-color="#FFFFFC" stop-opacity="0.7761"/>
<stop offset="0.3481" stop-color="#FFFFF4" stop-opacity="0.6384"/>
<stop offset="0.4582" stop-color="#FEFFE5" stop-opacity="0.524"/>
<stop offset="0.5562" stop-color="#FDFFD1" stop-opacity="0.4223"/>
<stop offset="0.6459" stop-color="#FCFFB6" stop-opacity="0.3291"/>
<stop offset="0.7297" stop-color="#FAFF96" stop-opacity="0.2421"/>
<stop offset="0.8089" stop-color="#F9FF6F" stop-opacity="0.1598"/>
<stop offset="0.8845" stop-color="#F7FF42" stop-opacity="0.0813"/>
<stop offset="0.9547" stop-color="#F4FF10" stop-opacity="0.01"/>
<stop offset="0.9627" stop-color="#F4FF0A" stop-opacity="0"/>
</radialGradient>
<radialGradient id="paint1_radial" cx="0" cy="0" r="1" gradientUnits="userSpaceOnUse" gradientTransform="translate(897.336 188.504) scale(9.85613 9.85464)">
<stop stop-color="white"/>
<stop offset="0.2156" stop-color="#FFFFFC" stop-opacity="0.7761"/>
<stop offset="0.3481" stop-color="#FFFFF4" stop-opacity="0.6384"/>
<stop offset="0.4582" stop-color="#FEFFE5" stop-opacity="0.524"/>
<stop offset="0.5562" stop-color="#FDFFD1" stop-opacity="0.4223"/>
<stop offset="0.6459" stop-color="#FCFFB6" stop-opacity="0.3291"/>
<stop offset="0.7297" stop-color="#FAFF96" stop-opacity="0.2421"/>
<stop offset="0.8089" stop-color="#F9FF6F" stop-opacity="0.1598"/>
<stop offset="0.8845" stop-color="#F7FF42" stop-opacity="0.0813"/>
<stop offset="0.9547" stop-color="#F4FF10" stop-opacity="0.01"/>
<stop offset="0.9627" stop-color="#F4FF0A" stop-opacity="0"/>
</radialGradient>
<radialGradient id="paint2_radial" cx="0" cy="0" r="1" gradientUnits="userSpaceOnUse" gradientTransform="translate(1388.35 743.76) scale(13.1928 12.8035)">
<stop stop-color="white"/>
<stop offset="0.2156" stop-color="#FFFFFC" stop-opacity="0.7761"/>
<stop offset="0.3481" stop-color="#FFFFF4" stop-opacity="0.6384"/>
<stop offset="0.4582" stop-color="#FEFFE5" stop-opacity="0.524"/>
<stop offset="0.5562" stop-color="#FDFFD1" stop-opacity="0.4223"/>
<stop offset="0.6459" stop-color="#FCFFB6" stop-opacity="0.3291"/>
<stop offset="0.7297" stop-color="#FAFF96" stop-opacity="0.2421"/>
<stop offset="0.8089" stop-color="#F9FF6F" stop-opacity="0.1598"/>
<stop offset="0.8845" stop-color="#F7FF42" stop-opacity="0.0813"/>
<stop offset="0.9547" stop-color="#F4FF10" stop-opacity="0.01"/>
<stop offset="0.9627" stop-color="#F4FF0A" stop-opacity="0"/>
</radialGradient>
<radialGradient id="paint3_radial" cx="0" cy="0" r="1" gradientUnits="userSpaceOnUse" gradientTransform="translate(1148.93 202.481) scale(7.37244 6.94081)">
<stop stop-color="white"/>
<stop offset="0.2156" stop-color="#FFFFFC" stop-opacity="0.7761"/>
<stop offset="0.3481" stop-color="#FFFFF4" stop-opacity="0.6384"/>
<stop offset="0.4582" stop-color="#FEFFE5" stop-opacity="0.524"/>
<stop offset="0.5562" stop-color="#FDFFD1" stop-opacity="0.4223"/>
<stop offset="0.6459" stop-color="#FCFFB6" stop-opacity="0.3291"/>
<stop offset="0.7297" stop-color="#FAFF96" stop-opacity="0.2421"/>
<stop offset="0.8089" stop-color="#F9FF6F" stop-opacity="0.1598"/>
<stop offset="0.8845" stop-color="#F7FF42" stop-opacity="0.0813"/>
<stop offset="0.9547" stop-color="#F4FF10" stop-opacity="0.01"/>
<stop offset="0.9627" stop-color="#F4FF0A" stop-opacity="0"/>
</radialGradient>
<radialGradient id="paint4_radial" cx="0" cy="0" r="1" gradientUnits="userSpaceOnUse" gradientTransform="translate(872.271 515.991) scale(17.849 17.8463)">
<stop stop-color="white"/>
<stop offset="0.2156" stop-color="#FFFFFC" stop-opacity="0.7761"/>
<stop offset="0.3481" stop-color="#FFFFF4" stop-opacity="0.6384"/>
<stop offset="0.4582" stop-color="#FEFFE5" stop-opacity="0.524"/>
<stop offset="0.5562" stop-color="#FDFFD1" stop-opacity="0.4223"/>
<stop offset="0.6459" stop-color="#FCFFB6" stop-opacity="0.3291"/>
<stop offset="0.7297" stop-color="#FAFF96" stop-opacity="0.2421"/>
<stop offset="0.8089" stop-color="#F9FF6F" stop-opacity="0.1598"/>
<stop offset="0.8845" stop-color="#F7FF42" stop-opacity="0.0813"/>
<stop offset="0.9547" stop-color="#F4FF10" stop-opacity="0.01"/>
<stop offset="0.9627" stop-color="#F4FF0A" stop-opacity="0"/>
</radialGradient>
<radialGradient id="paint5_radial" cx="0" cy="0" r="1" gradientUnits="userSpaceOnUse" gradientTransform="translate(1327.12 89.7009) scale(15.0518 15.0495)">
<stop stop-color="white"/>
<stop offset="0.2156" stop-color="#FFFFFC" stop-opacity="0.7761"/>
<stop offset="0.3481" stop-color="#FFFFF4" stop-opacity="0.6384"/>
<stop offset="0.4582" stop-color="#FEFFE5" stop-opacity="0.524"/>
<stop offset="0.5562" stop-color="#FDFFD1" stop-opacity="0.4223"/>
<stop offset="0.6459" stop-color="#FCFFB6" stop-opacity="0.3291"/>
<stop offset="0.7297" stop-color="#FAFF96" stop-opacity="0.2421"/>
<stop offset="0.8089" stop-color="#F9FF6F" stop-opacity="0.1598"/>
<stop offset="0.8845" stop-color="#F7FF42" stop-opacity="0.0813"/>
<stop offset="0.9547" stop-color="#F4FF10" stop-opacity="0.01"/>
<stop offset="0.9627" stop-color="#F4FF0A" stop-opacity="0"/>
</radialGradient>
<radialGradient id="paint6_radial" cx="0" cy="0" r="1" gradientUnits="userSpaceOnUse" gradientTransform="translate(1304.53 493.49) scale(11.6406 11.6389)">
<stop stop-color="white"/>
<stop offset="0.2156" stop-color="#FFFFFC" stop-opacity="0.7761"/>
<stop offset="0.3481" stop-color="#FFFFF4" stop-opacity="0.6384"/>
<stop offset="0.4582" stop-color="#FEFFE5" stop-opacity="0.524"/>
<stop offset="0.5562" stop-color="#FDFFD1" stop-opacity="0.4223"/>
<stop offset="0.6459" stop-color="#FCFFB6" stop-opacity="0.3291"/>
<stop offset="0.7297" stop-color="#FAFF96" stop-opacity="0.2421"/>
<stop offset="0.8089" stop-color="#F9FF6F" stop-opacity="0.1598"/>
<stop offset="0.8845" stop-color="#F7FF42" stop-opacity="0.0813"/>
<stop offset="0.9547" stop-color="#F4FF10" stop-opacity="0.01"/>
<stop offset="0.9627" stop-color="#F4FF0A" stop-opacity="0"/>
</radialGradient>
<clipPath id="clip0">
<rect width="1490" height="838" fill="white"/>
</clipPath>
</defs>
</svg>
