<svg width="78" height="39" viewBox="0 0 78 39" fill="none" xmlns="http://www.w3.org/2000/svg">
<path d="M41.0487 5.46C41.9367 5.46 42.7407 5.664 43.4607 6.072C44.1807 6.468 44.7447 7.032 45.1527 7.764C45.5607 8.496 45.7647 9.33 45.7647 10.266C45.7647 11.202 45.5607 12.036 45.1527 12.768C44.7447 13.5 44.1807 14.07 43.4607 14.478C42.7407 14.886 41.9367 15.09 41.0487 15.09C40.2567 15.09 39.5427 14.922 38.9067 14.586C38.2827 14.25 37.7787 13.764 37.3947 13.128V15H36.1707V1.644H37.4487V7.332C37.8447 6.72 38.3487 6.258 38.9607 5.946C39.5847 5.622 40.2807 5.46 41.0487 5.46ZM40.9587 13.956C41.6187 13.956 42.2187 13.806 42.7587 13.506C43.2987 13.194 43.7187 12.756 44.0187 12.192C44.3307 11.628 44.4867 10.986 44.4867 10.266C44.4867 9.546 44.3307 8.904 44.0187 8.34C43.7187 7.776 43.2987 7.344 42.7587 7.044C42.2187 6.732 41.6187 6.576 40.9587 6.576C40.2867 6.576 39.6807 6.732 39.1407 7.044C38.6127 7.344 38.1927 7.776 37.8807 8.34C37.5807 8.904 37.4307 9.546 37.4307 10.266C37.4307 10.986 37.5807 11.628 37.8807 12.192C38.1927 12.756 38.6127 13.194 39.1407 13.506C39.6807 13.806 40.2867 13.956 40.9587 13.956ZM51.6292 5.46C52.8652 5.46 53.8132 5.772 54.4732 6.396C55.1332 7.008 55.4632 7.92 55.4632 9.132V15H54.2392V13.524C53.9512 14.016 53.5252 14.4 52.9612 14.676C52.4092 14.952 51.7492 15.09 50.9812 15.09C49.9252 15.09 49.0852 14.838 48.4612 14.334C47.8372 13.83 47.5252 13.164 47.5252 12.336C47.5252 11.532 47.8132 10.884 48.3892 10.392C48.9772 9.9 49.9072 9.654 51.1792 9.654H54.1852V9.078C54.1852 8.262 53.9572 7.644 53.5012 7.224C53.0452 6.792 52.3792 6.576 51.5032 6.576C50.9032 6.576 50.3272 6.678 49.7752 6.882C49.2232 7.074 48.7492 7.344 48.3532 7.692L47.7772 6.738C48.2572 6.33 48.8332 6.018 49.5052 5.802C50.1772 5.574 50.8852 5.46 51.6292 5.46ZM51.1792 14.082C51.8992 14.082 52.5172 13.92 53.0332 13.596C53.5492 13.26 53.9332 12.78 54.1852 12.156V10.608H51.2152C49.5952 10.608 48.7852 11.172 48.7852 12.3C48.7852 12.852 48.9952 13.29 49.4152 13.614C49.8352 13.926 50.4232 14.082 51.1792 14.082ZM62.8935 15.09C61.9575 15.09 61.1175 14.886 60.3735 14.478C59.6415 14.07 59.0655 13.5 58.6455 12.768C58.2255 12.024 58.0155 11.19 58.0155 10.266C58.0155 9.342 58.2255 8.514 58.6455 7.782C59.0655 7.05 59.6415 6.48 60.3735 6.072C61.1175 5.664 61.9575 5.46 62.8935 5.46C63.7095 5.46 64.4355 5.622 65.0715 5.946C65.7195 6.258 66.2295 6.72 66.6015 7.332L65.6475 7.98C65.3355 7.512 64.9395 7.164 64.4595 6.936C63.9795 6.696 63.4575 6.576 62.8935 6.576C62.2095 6.576 61.5915 6.732 61.0395 7.044C60.4995 7.344 60.0735 7.776 59.7615 8.34C59.4615 8.904 59.3115 9.546 59.3115 10.266C59.3115 10.998 59.4615 11.646 59.7615 12.21C60.0735 12.762 60.4995 13.194 61.0395 13.506C61.5915 13.806 62.2095 13.956 62.8935 13.956C63.4575 13.956 63.9795 13.842 64.4595 13.614C64.9395 13.386 65.3355 13.038 65.6475 12.57L66.6015 13.218C66.2295 13.83 65.7195 14.298 65.0715 14.622C64.4235 14.934 63.6975 15.09 62.8935 15.09ZM72.4815 10.248L70.2495 12.3V15H68.9715V1.644H70.2495V10.698L75.9015 5.532H77.4855L73.4355 9.402L77.8635 15H76.2975L72.4815 10.248Z" fill="#332960"/>
<path d="M22.6019 3.16797H13.8641L0 22.0639L13.8641 38.5104H22.6019L12.1165 25.6798H78V18.2148H12.1165L22.6019 3.16797Z" fill="#332960"/>
</svg>
