<svg width="122" height="122" viewBox="0 0 122 122" fill="none" xmlns="http://www.w3.org/2000/svg">
<g filter="url(#filter0_d)">
<circle cx="61" cy="57" r="57" fill="white"/>
<path d="M63.0487 43.46C63.9367 43.46 64.7407 43.664 65.4607 44.072C66.1807 44.468 66.7447 45.032 67.1527 45.764C67.5607 46.496 67.7647 47.33 67.7647 48.266C67.7647 49.202 67.5607 50.036 67.1527 50.768C66.7447 51.5 66.1807 52.07 65.4607 52.478C64.7407 52.886 63.9367 53.09 63.0487 53.09C62.2567 53.09 61.5427 52.922 60.9067 52.586C60.2827 52.25 59.7787 51.764 59.3947 51.128V53H58.1707V39.644H59.4487V45.332C59.8447 44.72 60.3487 44.258 60.9607 43.946C61.5847 43.622 62.2807 43.46 63.0487 43.46ZM62.9587 51.956C63.6187 51.956 64.2187 51.806 64.7587 51.506C65.2987 51.194 65.7187 50.756 66.0187 50.192C66.3307 49.628 66.4867 48.986 66.4867 48.266C66.4867 47.546 66.3307 46.904 66.0187 46.34C65.7187 45.776 65.2987 45.344 64.7587 45.044C64.2187 44.732 63.6187 44.576 62.9587 44.576C62.2867 44.576 61.6807 44.732 61.1407 45.044C60.6127 45.344 60.1927 45.776 59.8807 46.34C59.5807 46.904 59.4307 47.546 59.4307 48.266C59.4307 48.986 59.5807 49.628 59.8807 50.192C60.1927 50.756 60.6127 51.194 61.1407 51.506C61.6807 51.806 62.2867 51.956 62.9587 51.956ZM73.6292 43.46C74.8652 43.46 75.8132 43.772 76.4732 44.396C77.1332 45.008 77.4632 45.92 77.4632 47.132V53H76.2392V51.524C75.9512 52.016 75.5252 52.4 74.9612 52.676C74.4092 52.952 73.7492 53.09 72.9812 53.09C71.9252 53.09 71.0852 52.838 70.4612 52.334C69.8372 51.83 69.5252 51.164 69.5252 50.336C69.5252 49.532 69.8132 48.884 70.3892 48.392C70.9772 47.9 71.9072 47.654 73.1792 47.654H76.1852V47.078C76.1852 46.262 75.9572 45.644 75.5012 45.224C75.0452 44.792 74.3792 44.576 73.5032 44.576C72.9032 44.576 72.3272 44.678 71.7752 44.882C71.2232 45.074 70.7492 45.344 70.3532 45.692L69.7772 44.738C70.2572 44.33 70.8332 44.018 71.5052 43.802C72.1772 43.574 72.8852 43.46 73.6292 43.46ZM73.1792 52.082C73.8992 52.082 74.5172 51.92 75.0332 51.596C75.5492 51.26 75.9332 50.78 76.1852 50.156V48.608H73.2152C71.5952 48.608 70.7852 49.172 70.7852 50.3C70.7852 50.852 70.9952 51.29 71.4152 51.614C71.8352 51.926 72.4232 52.082 73.1792 52.082ZM84.8935 53.09C83.9575 53.09 83.1175 52.886 82.3735 52.478C81.6415 52.07 81.0655 51.5 80.6455 50.768C80.2255 50.024 80.0155 49.19 80.0155 48.266C80.0155 47.342 80.2255 46.514 80.6455 45.782C81.0655 45.05 81.6415 44.48 82.3735 44.072C83.1175 43.664 83.9575 43.46 84.8935 43.46C85.7095 43.46 86.4355 43.622 87.0715 43.946C87.7195 44.258 88.2295 44.72 88.6015 45.332L87.6475 45.98C87.3355 45.512 86.9395 45.164 86.4595 44.936C85.9795 44.696 85.4575 44.576 84.8935 44.576C84.2095 44.576 83.5915 44.732 83.0395 45.044C82.4995 45.344 82.0735 45.776 81.7615 46.34C81.4615 46.904 81.3115 47.546 81.3115 48.266C81.3115 48.998 81.4615 49.646 81.7615 50.21C82.0735 50.762 82.4995 51.194 83.0395 51.506C83.5915 51.806 84.2095 51.956 84.8935 51.956C85.4575 51.956 85.9795 51.842 86.4595 51.614C86.9395 51.386 87.3355 51.038 87.6475 50.57L88.6015 51.218C88.2295 51.83 87.7195 52.298 87.0715 52.622C86.4235 52.934 85.6975 53.09 84.8935 53.09ZM94.4815 48.248L92.2495 50.3V53H90.9715V39.644H92.2495V48.698L97.9015 43.532H99.4855L95.4355 47.402L99.8635 53H98.2975L94.4815 48.248Z" fill="#332960"/>
<path d="M44.6019 41.168H35.8641L22 60.0639L35.8641 76.5104H44.6019L34.1165 63.6798H100V56.2148H34.1165L44.6019 41.168Z" fill="#332960"/>
</g>
<defs>
<filter id="filter0_d" x="0" y="0" width="122" height="122" filterUnits="userSpaceOnUse" color-interpolation-filters="sRGB">
<feFlood flood-opacity="0" result="BackgroundImageFix"/>
<feColorMatrix in="SourceAlpha" type="matrix" values="0 0 0 0 0 0 0 0 0 0 0 0 0 0 0 0 0 0 127 0"/>
<feOffset dy="4"/>
<feGaussianBlur stdDeviation="2"/>
<feColorMatrix type="matrix" values="0 0 0 0 0 0 0 0 0 0 0 0 0 0 0 0 0 0 0.25 0"/>
<feBlend mode="normal" in2="BackgroundImageFix" result="effect1_dropShadow"/>
<feBlend mode="normal" in="SourceGraphic" in2="effect1_dropShadow" result="shape"/>
</filter>
</defs>
</svg>
