<svg width="276" height="144" viewBox="0 0 276 144" fill="none" xmlns="http://www.w3.org/2000/svg">
<g clip-path="url(#clip0)">
<rect width="276" height="144" fill="white"/>
<path d="M275.504 0.496094H-0.496094V144.496H275.504V0.496094Z" fill="#332960"/>
<circle r="37" transform="matrix(-1 0 0 1 227 93)" fill="#F3F8EF"/>
<ellipse cx="114.586" cy="45.0381" rx="17.0147" ry="17.0147" fill="#F3F8EF"/>
<ellipse cx="73.05" cy="45.0381" rx="17.0147" ry="17.0147" fill="#F3F8EF"/>
<path d="M61.2899 32.5273L24.258 66.5567L77.8041 64.3047L89.5643 87.5748H93.0673L104.577 64.3047H156.122L126.096 32.5273L100.824 40.5342H86.5617L61.2899 32.5273Z" fill="#F3F8EF"/>
<circle cx="129.599" cy="91.5796" r="35.5328" fill="#332960" stroke="#F3F8EF" stroke-width="5"/>
<path fill-rule="evenodd" clip-rule="evenodd" d="M145.057 124.425C140.144 126.986 134.078 129.611 129.849 129.611C121.592 129.611 109.045 122.857 101.575 115.599V113.505V109.66C103.665 104.973 106.566 103.012 110.803 100.158C110.803 100.158 109.279 95.5025 109.279 93.1055C109.279 90.0176 109.804 82.3777 116.031 75.7743C116.031 75.7743 122.509 68.4994 132.845 68.3804C133.564 68.3721 134.279 68.3994 134.985 68.4589C135.711 68.5761 148.173 70.7671 150.923 83.4876C152.945 92.8393 146.262 98.0783 146.262 98.0783L151.275 99.4938L151.275 99.4942C151.278 99.4969 151.3 99.5057 151.338 99.521C152.097 99.8278 159.374 102.767 159.374 112.847C159.376 112.845 156.372 116.6 153.369 119.603C153.369 119.603 149.936 121.854 145.445 124.221C145.008 122.754 144.608 118.101 144.608 118.101C144.696 123.415 143.651 124.388 143.612 124.424C143.611 124.425 143.611 124.425 143.611 124.425H145.057ZM145.057 124.425H145.514C145.491 124.367 145.468 124.298 145.445 124.221C145.316 124.289 145.187 124.357 145.057 124.425ZM151.288 99.4973L151.275 99.4938C152.31 98.6932 154.113 96.7377 155.405 94.4972C156.225 93.0743 157.019 90.9467 157.041 87.6128C157.064 84.0832 155.857 82.0385 154.921 80.4517L154.92 80.4508C154.83 80.2987 154.743 80.1507 154.659 80.0061C151.998 75.4005 144.121 69.2292 134.985 68.4589C134.963 68.4554 134.952 68.4537 134.952 68.4537C145.258 69.3809 151.651 74.4638 154.628 79.4353C155.619 81.0925 157.253 83.9014 157.253 87.7623C157.253 91.0903 156.039 93.6923 155.205 95.1055C153.894 97.3346 152.344 98.7048 151.288 99.4973ZM113.139 98.9043C113.139 98.9043 107.846 88.8616 117.449 77.5872C117.449 77.5872 132.717 69.4047 145.582 77.6985C145.582 77.6985 147.495 86 143.096 97.1729C143.096 97.1729 127.381 93.3276 113.139 98.9043ZM115.611 95.1266C115.611 95.1266 113.556 87.9747 117.971 81.3908L125.217 93.1551L125.196 93.1564C124.828 93.1779 119.53 93.4864 115.611 95.1266Z" fill="#F3F8EF"/>
<path d="M88.5655 91.5796C88.5655 111.204 72.657 127.112 53.0328 127.112C33.4086 127.112 17.5 111.204 17.5 91.5796C17.5 71.9554 33.4086 56.0469 53.0328 56.0469C72.657 56.0469 88.5655 71.9554 88.5655 91.5796Z" fill="#332960" stroke="#F3F8EF" stroke-width="5"/>
<path fill-rule="evenodd" clip-rule="evenodd" d="M68.4906 124.425C63.578 126.986 57.5117 129.611 53.283 129.611C45.0259 129.611 32.4792 122.857 25.0086 115.599V113.505V109.66C27.0991 104.973 29.9997 103.012 34.2374 100.158C34.2374 100.158 32.7129 95.5025 32.7129 93.1055C32.7129 90.0176 33.238 82.3777 39.4646 75.7743C39.4646 75.7743 45.9431 68.4994 56.2786 68.3804C56.9984 68.3721 57.7126 68.3994 58.4192 68.4589C59.1452 68.5761 71.6074 70.7671 74.3569 83.4876C76.3791 92.8393 69.6956 98.0783 69.6956 98.0783L74.7093 99.4938L74.7088 99.4942C74.7123 99.4969 74.734 99.5057 74.7721 99.521C75.5314 99.8278 82.8084 102.767 82.8084 112.847C82.8104 112.845 79.8058 116.6 76.8032 119.603C76.8032 119.603 73.3698 121.854 68.8789 124.221C68.4423 122.754 68.0423 118.101 68.0423 118.101C68.1304 123.415 67.0846 124.388 67.0459 124.424C67.0452 124.425 67.0448 124.425 67.0448 124.425H68.4906ZM68.4906 124.425H68.948C68.9249 124.367 68.9019 124.298 68.8789 124.221C68.7504 124.289 68.6209 124.357 68.4906 124.425ZM74.7219 99.4973L74.7093 99.4938C75.7439 98.6932 77.5471 96.7377 78.8391 94.4972C79.6589 93.0743 80.4533 90.9467 80.4748 87.6128C80.4979 84.0831 79.2912 82.0385 78.3546 80.4517C78.2646 80.2992 78.1771 80.151 78.0934 80.0061C75.4319 75.4005 67.5553 69.2292 58.4192 68.4589C58.3973 68.4554 58.3861 68.4537 58.3861 68.4537C68.6924 69.3809 75.0849 74.4638 78.0616 79.4353C79.0532 81.0925 80.687 83.9014 80.687 87.7623C80.687 91.0903 79.4729 93.6923 78.6394 95.1055C77.3277 97.3346 75.7779 98.7048 74.7219 99.4973ZM36.5733 98.9043C36.5733 98.9043 31.2796 88.8616 40.8831 77.5872C40.8831 77.5872 56.1512 69.4047 69.0164 77.6985C69.0164 77.6985 70.9292 86 66.5296 97.1729C66.5296 97.1729 50.8146 93.3276 36.5733 98.9043ZM39.0453 95.1266C39.0453 95.1266 36.9899 87.9747 41.4052 81.3908L48.6508 93.1551L48.6304 93.1564C48.2619 93.1779 42.9641 93.4864 39.0453 95.1266Z" fill="#F3F8EF"/>
<ellipse cx="227.027" cy="93" rx="35.0274" ry="35" fill="#32275F"/>
<path d="M261.998 101.829C254.449 90.4041 235.66 89.0237 235.66 89.0237L237.41 86.1484C258.992 93.91 259.019 96.6641 261.998 99.2678V101.829Z" fill="#F4FAFC"/>
<path d="M208.247 77.802C207.6 76.4508 208.058 75.939 208.058 75.939C208.058 75.939 208.705 74.8437 209.433 74.9896C210.163 75.1355 210.163 74.5519 210.163 74.5519C210.163 74.5519 210.455 73.8224 209.433 73.6788C208.413 73.5329 207.838 74.2871 207.838 74.2871C207.847 73.8763 207.838 73.4251 207.838 73.4251C207.725 71.2435 206.867 71.5779 206.867 71.5779C205.717 71.928 206.371 73.2389 206.371 73.2389C206.371 73.2389 205.964 72.2109 205.787 71.6363C205.611 71.0617 205.495 70.8933 205.203 70.9068C204.911 70.9225 204.735 71.1918 204.618 71.7799C204.504 72.3702 205.057 73.3825 205.057 73.3825C204.706 72.2333 204.037 72.2176 204.037 72.2176C204.037 72.2176 203.453 71.9258 203.453 72.9471C203.453 73.9683 204.326 74.6956 204.326 74.6956C204.326 74.6956 203.453 73.3847 202.868 73.2389C202.284 73.093 202.138 73.3847 202.138 73.3847C202.138 73.3847 201.554 73.9683 202.576 75.1332C203.599 76.2982 204.034 77.3194 204.034 77.3194C204.472 78.4843 205.764 79.1128 205.764 79.1128L205.692 79.041C205.692 79.041 204.526 80.2059 205.254 81.2272C208.992 86.4547 210.868 86.109 210.868 86.109C208.68 88.7306 208.972 93.3948 208.972 93.3948C206.494 95.4351 206.202 99.9511 206.202 99.9511C206.202 99.9511 205.328 105.342 207.514 109.421C209.7 113.499 212.836 115.144 212.836 115.144C212.398 116.57 212.836 117.216 212.836 117.216C215.024 119.402 218.232 117.946 218.232 117.946C218.232 118.819 218.962 120.713 221.732 120.567C224.502 120.421 224.356 116.778 225.67 113.427C226.982 110.076 219.838 109.784 219.838 109.784C221.734 108.909 219.838 107.6 219.838 107.6C232.962 104.541 232.524 98.2767 232.524 98.2767C232.693 100.014 233.335 102.714 233.398 105.417C233.499 109.735 232.96 114.013 232.96 114.013C232.96 114.013 232.522 115.324 232.522 117.51C232.522 119.696 233.396 119.404 233.396 119.404C234.562 119.113 234.416 117.802 234.416 117.802C234.416 117.802 234.416 118.675 234.562 119.259C234.708 119.842 235.146 119.988 235.436 119.988C235.725 119.988 236.02 119.842 236.166 119.259C236.312 118.675 236.02 117.656 236.02 117.656C236.312 118.821 236.893 118.675 236.893 118.675C237.624 118.529 237.913 117.946 237.624 117.218C237.298 116.406 236.604 115.616 236.604 115.616C236.604 115.616 237.624 115.47 237.77 113.284C237.859 111.93 241.137 101.796 242.436 97.5494C243.233 94.9413 243.876 91.46 243.822 90.6295C243.676 88.4433 239.594 85.384 239.594 85.384C240.247 85.2179 241.584 84.7197 242.656 83.9273C243.334 83.4246 244.147 82.5829 244.844 81.0139C245.65 79.1936 245.392 77.912 245.282 76.9334C244.947 74.002 242.844 68.9091 238.282 66.4424C237.666 66.1102 234.317 64.4515 228.725 66.8666C223.57 69.0932 221.577 73.1334 221.146 73.8C220.038 75.5081 220.416 77.4429 220.416 77.4429C213.562 76.7134 209.406 78.9736 208.312 77.8806L208.247 77.802Z" fill="#F3F8EF"/>
<path d="M221.952 77.5107C221.952 77.5107 221.514 71.6839 228.368 68.3328C228.368 68.3328 237.264 67.6033 241.638 74.1596C241.638 74.1596 240.618 78.6756 236.242 83.0479C236.244 83.0479 229.826 77.8025 221.952 77.5107Z" fill="#171530"/>
<path d="M238.36 66.4805C243.04 69.0348 245.001 73.6922 245.387 76.6527C245.515 77.6381 245.711 79.299 244.918 81.1238C244.235 82.695 243.125 83.6736 242.442 84.1697C241.364 84.953 240.306 85.2919 239.643 85.449L237.41 83.7791C237.41 83.7791 241.84 82.6366 242.806 77.8064C244.158 71.0369 238.36 66.4805 238.36 66.4805Z" fill="#B7B1D8"/>
<path d="M243.826 90.478C243.826 90.478 242.871 92.9111 242.076 96.0153C241.079 99.9096 239.6 105.335 238.138 109.42C237.102 112.315 236.532 114.252 235.64 115.002C235.64 115.002 235.121 115.615 234.034 115.664C234.034 115.664 236.795 116.427 237.455 114.921C238.116 113.415 240.119 105.35 240.6 103.851C241.079 102.354 243.026 97.0972 243.588 93.3802C244.15 89.6633 243.826 90.478 243.826 90.478Z" fill="#B7B1D8"/>
<path d="M231.868 91.6445C231.868 91.6445 231.868 94.2662 232.524 98.2726C233.18 102.279 226.472 106.214 219.838 107.596C219.838 107.596 222.828 100.968 218.306 99.3657C218.306 99.3657 228.44 105.395 231.868 91.6445Z" fill="#B7B1D8"/>
<path d="M218.234 117.944C218.234 117.944 218.744 116.269 219.036 114.81C219.036 114.81 209.85 111.897 211.744 102.281C211.744 102.281 208.907 111.807 217.399 115.858C217.399 115.858 217.895 118.175 213.582 117.804C213.58 117.804 215.244 119.183 218.234 117.944Z" fill="#B7B1D8"/>
<path d="M205.182 81.1562C205.182 81.1562 209.556 85.6723 213.786 83.632C213.786 83.632 212.036 84.651 210.87 86.1077C210.87 86.1099 208.992 86.9202 205.182 81.1562Z" fill="#B7B1D8"/>
<path d="M224.156 76.6482C224.156 76.6482 223.707 72.9761 227.056 70.2266L227.93 77.5123C227.932 77.5101 226.472 76.7829 224.156 76.6482Z" fill="#F9F9E0"/>
</g>
<defs>
<clipPath id="clip0">
<rect width="276" height="144" fill="white"/>
</clipPath>
</defs>
</svg>
