<svg width="276" height="144" viewBox="0 0 276 144" fill="none" xmlns="http://www.w3.org/2000/svg">
<g clip-path="url(#clip0)">
<rect width="276" height="144" fill="white"/>
<path d="M276 0H0V144H276V0Z" fill="#332960"/>
<path d="M139.829 144.002H0V123.717V114.647C4.93075 103.594 11.7721 98.9666 21.7671 92.2357C21.7671 92.2357 18.1715 81.2555 18.1715 75.6019C18.1715 68.3186 19.4099 50.2991 34.0963 34.7241C34.0963 34.7241 49.3766 17.5655 73.7541 17.2847C97.4042 17.013 118.444 33.0023 125.207 44.7053C127.458 48.6048 130.884 53.5218 130.824 62.6466C130.773 70.5101 128.899 75.5283 126.966 78.8845C123.918 84.1698 119.664 88.7828 117.224 90.6704C117.399 90.8039 139.659 95.9096 139.949 125.885C139.953 125.881 139.953 135.706 139.829 144.002Z" fill="#F3F8EF"/>
<path d="M101.428 129.094C101.428 129.094 102.473 141.253 103.564 144.01H99.0751C99.0751 144.006 101.639 141.865 101.428 129.094Z" fill="#B7B1D8"/>
<circle r="37" transform="matrix(-1 0 0 1 227 95)" fill="#F3F8EF"/>
<path d="M27.2761 89.2831C27.2761 89.2831 14.7904 65.5962 37.4414 39.0042C37.4414 39.0042 73.4529 19.7048 103.797 39.2666C103.797 39.2666 108.309 58.8469 97.9317 85.1995C97.9317 85.1995 60.8659 76.1299 27.2761 89.2831Z" fill="#171530"/>
<path d="M78.7253 17.4648C103.034 19.6517 118.111 31.6402 125.132 43.3662C127.471 47.2749 131.325 53.8999 131.325 63.0064C131.325 70.856 128.461 76.9929 126.495 80.3261C123.401 85.5838 119.746 88.8157 117.255 90.6849L105.4 87.3379C105.4 87.3379 121.164 74.9811 116.394 52.9239C109.714 22.0181 78.7253 17.4648 78.7253 17.4648Z" fill="#B7B1D8"/>
<path d="M33.1073 80.3779C33.1073 80.3779 28.2594 63.5093 38.6734 47.9805L55.763 75.728C55.763 75.7326 42.688 76.3679 33.1073 80.3779Z" fill="#F9F9E0"/>
<ellipse cx="227.027" cy="95" rx="35.0274" ry="35" fill="#32275F"/>
<path d="M261.998 103.829C254.45 92.4041 235.66 91.0237 235.66 91.0237L237.41 88.1484C258.992 95.91 259.019 98.6641 261.998 101.268V103.829Z" fill="#F4FAFC"/>
<path d="M208.246 79.802C207.6 78.4508 208.058 77.939 208.058 77.939C208.058 77.939 208.705 76.8437 209.433 76.9896C210.163 77.1355 210.163 76.5519 210.163 76.5519C210.163 76.5519 210.455 75.8224 209.433 75.6788C208.413 75.5329 207.838 76.287 207.838 76.287C207.847 75.8763 207.838 75.4251 207.838 75.4251C207.725 73.2435 206.867 73.5779 206.867 73.5779C205.717 73.928 206.371 75.2389 206.371 75.2389C206.371 75.2389 205.964 74.2109 205.787 73.6363C205.611 73.0617 205.495 72.8933 205.203 72.9068C204.91 72.9225 204.735 73.1918 204.618 73.7799C204.504 74.3702 205.057 75.3825 205.057 75.3825C204.706 74.2333 204.037 74.2176 204.037 74.2176C204.037 74.2176 203.453 73.9258 203.453 74.9471C203.453 75.9683 204.326 76.6956 204.326 76.6956C204.326 76.6956 203.453 75.3847 202.868 75.2389C202.284 75.093 202.138 75.3847 202.138 75.3847C202.138 75.3847 201.554 75.9683 202.576 77.1332C203.599 78.2982 204.034 79.3194 204.034 79.3194C204.472 80.4843 205.764 81.1128 205.764 81.1128L205.692 81.041C205.692 81.041 204.526 82.2059 205.254 83.2272C208.992 88.4547 210.868 88.109 210.868 88.109C208.68 90.7306 208.972 95.3948 208.972 95.3948C206.494 97.4351 206.202 101.951 206.202 101.951C206.202 101.951 205.328 107.342 207.514 111.421C209.7 115.499 212.836 117.144 212.836 117.144C212.398 118.57 212.836 119.216 212.836 119.216C215.024 121.402 218.232 119.946 218.232 119.946C218.232 120.819 218.962 122.713 221.732 122.567C224.502 122.421 224.356 118.778 225.67 115.427C226.982 112.076 219.838 111.784 219.838 111.784C221.734 110.909 219.838 109.6 219.838 109.6C232.962 106.541 232.524 100.277 232.524 100.277C232.693 102.014 233.335 104.714 233.398 107.417C233.499 111.735 232.96 116.013 232.96 116.013C232.96 116.013 232.522 117.324 232.522 119.51C232.522 121.696 233.396 121.404 233.396 121.404C234.562 121.113 234.416 119.802 234.416 119.802C234.416 119.802 234.416 120.675 234.562 121.259C234.708 121.842 235.146 121.988 235.436 121.988C235.725 121.988 236.02 121.842 236.166 121.259C236.312 120.675 236.02 119.656 236.02 119.656C236.312 120.821 236.893 120.675 236.893 120.675C237.624 120.529 237.913 119.946 237.624 119.218C237.298 118.406 236.604 117.616 236.604 117.616C236.604 117.616 237.624 117.47 237.77 115.284C237.859 113.93 241.137 103.796 242.435 99.5494C243.233 96.9413 243.875 93.46 243.822 92.6295C243.676 90.4433 239.594 87.384 239.594 87.384C240.247 87.2179 241.584 86.7197 242.656 85.9273C243.334 85.4246 244.147 84.5829 244.844 83.0139C245.65 81.1936 245.392 79.912 245.282 78.9334C244.947 76.002 242.844 70.9091 238.282 68.4424C237.666 68.1102 234.317 66.4515 228.725 68.8666C223.57 71.0932 221.577 75.1334 221.146 75.8C220.038 77.5081 220.416 79.4429 220.416 79.4429C213.562 78.7134 209.406 80.9736 208.312 79.8806L208.246 79.802Z" fill="#F3F8EF"/>
<path d="M221.952 79.5107C221.952 79.5107 221.514 73.6839 228.368 70.3328C228.368 70.3328 237.264 69.6033 241.638 76.1596C241.638 76.1596 240.618 80.6756 236.242 85.0479C236.244 85.0479 229.826 79.8025 221.952 79.5107Z" fill="#171530"/>
<path d="M238.36 68.4805C243.04 71.0348 245.001 75.6922 245.387 78.6527C245.515 79.6381 245.711 81.299 244.918 83.1238C244.235 84.695 243.125 85.6736 242.442 86.1697C241.364 86.953 240.306 87.2919 239.643 87.449L237.41 85.7791C237.41 85.7791 241.84 84.6366 242.806 79.8064C244.158 73.0369 238.36 68.4805 238.36 68.4805Z" fill="#B7B1D8"/>
<path d="M243.826 92.478C243.826 92.478 242.871 94.9111 242.076 98.0153C241.079 101.91 239.6 107.335 238.138 111.42C237.102 114.315 236.532 116.252 235.64 117.002C235.64 117.002 235.121 117.615 234.034 117.664C234.034 117.664 236.795 118.427 237.455 116.921C238.116 115.415 240.119 107.35 240.6 105.851C241.079 104.354 243.026 99.0972 243.588 95.3802C244.15 91.6633 243.826 92.478 243.826 92.478Z" fill="#B7B1D8"/>
<path d="M231.868 93.6445C231.868 93.6445 231.868 96.2661 232.524 100.273C233.18 104.279 226.472 108.214 219.838 109.596C219.838 109.596 222.828 102.968 218.306 101.366C218.306 101.366 228.44 107.395 231.868 93.6445Z" fill="#B7B1D8"/>
<path d="M218.234 119.944C218.234 119.944 218.744 118.269 219.036 116.81C219.036 116.81 209.85 113.897 211.744 104.281C211.744 104.281 208.907 113.807 217.399 117.858C217.399 117.858 217.895 120.175 213.582 119.804C213.58 119.804 215.244 121.183 218.234 119.944Z" fill="#B7B1D8"/>
<path d="M205.182 83.1562C205.182 83.1562 209.556 87.6722 213.786 85.632C213.786 85.632 212.036 86.651 210.87 88.1077C210.87 88.1099 208.992 88.9202 205.182 83.1562Z" fill="#B7B1D8"/>
<path d="M224.156 78.6482C224.156 78.6482 223.707 74.9761 227.056 72.2266L227.93 79.5123C227.932 79.5101 226.472 78.7829 224.156 78.6482Z" fill="#F9F9E0"/>
</g>
<defs>
<clipPath id="clip0">
<rect width="276" height="144" fill="white"/>
</clipPath>
</defs>
</svg>
