<svg width="122" height="57" viewBox="0 0 122 57" fill="none" xmlns="http://www.w3.org/2000/svg">
<g filter="url(#filter0_d)">
<rect x="4" width="114" height="49" rx="10" fill="white"/>
<path d="M30.5638 24.3166H33.0238V29.8966C32.3038 30.4699 31.4638 30.9099 30.5038 31.2166C29.5438 31.5232 28.5572 31.6766 27.5438 31.6766C26.1172 31.6766 24.8305 31.3699 23.6838 30.7566C22.5372 30.1299 21.6372 29.2699 20.9838 28.1766C20.3305 27.0832 20.0038 25.8499 20.0038 24.4766C20.0038 23.1032 20.3305 21.8699 20.9838 20.7766C21.6372 19.6832 22.5372 18.8299 23.6838 18.2166C24.8438 17.5899 26.1438 17.2766 27.5838 17.2766C28.7572 17.2766 29.8238 17.4699 30.7838 17.8566C31.7438 18.2432 32.5505 18.8099 33.2038 19.5566L31.5638 21.1566C30.4972 20.0899 29.2105 19.5566 27.7038 19.5566C26.7172 19.5566 25.8372 19.7632 25.0638 20.1766C24.3038 20.5899 23.7038 21.1699 23.2638 21.9166C22.8372 22.6632 22.6238 23.5166 22.6238 24.4766C22.6238 25.4099 22.8372 26.2499 23.2638 26.9966C23.7038 27.7432 24.3038 28.3299 25.0638 28.7566C25.8372 29.1832 26.7105 29.3966 27.6838 29.3966C28.7772 29.3966 29.7372 29.1566 30.5638 28.6766V24.3166ZM41.0131 31.6166C39.9331 31.6166 38.9597 31.3832 38.0931 30.9166C37.2264 30.4499 36.5464 29.8032 36.0531 28.9766C35.5731 28.1366 35.3331 27.1899 35.3331 26.1366C35.3331 25.0832 35.5731 24.1432 36.0531 23.3166C36.5464 22.4899 37.2264 21.8432 38.0931 21.3766C38.9597 20.9099 39.9331 20.6766 41.0131 20.6766C42.1064 20.6766 43.0864 20.9099 43.9531 21.3766C44.8197 21.8432 45.4931 22.4899 45.9731 23.3166C46.4664 24.1432 46.7131 25.0832 46.7131 26.1366C46.7131 27.1899 46.4664 28.1366 45.9731 28.9766C45.4931 29.8032 44.8197 30.4499 43.9531 30.9166C43.0864 31.3832 42.1064 31.6166 41.0131 31.6166ZM41.0131 29.4766C41.9331 29.4766 42.6931 29.1699 43.2931 28.5566C43.8931 27.9432 44.1931 27.1366 44.1931 26.1366C44.1931 25.1366 43.8931 24.3299 43.2931 23.7166C42.6931 23.1032 41.9331 22.7966 41.0131 22.7966C40.0931 22.7966 39.3331 23.1032 38.7331 23.7166C38.1464 24.3299 37.8531 25.1366 37.8531 26.1366C37.8531 27.1366 38.1464 27.9432 38.7331 28.5566C39.3331 29.1699 40.0931 29.4766 41.0131 29.4766ZM60.551 20.6766C61.591 20.6766 62.5177 20.9032 63.331 21.3566C64.1577 21.8099 64.8044 22.4499 65.271 23.2766C65.7377 24.1032 65.971 25.0566 65.971 26.1366C65.971 27.2166 65.7377 28.1766 65.271 29.0166C64.8044 29.8432 64.1577 30.4832 63.331 30.9366C62.5177 31.3899 61.591 31.6166 60.551 31.6166C59.8177 31.6166 59.1444 31.4899 58.531 31.2366C57.931 30.9832 57.4244 30.6032 57.011 30.0966V31.4766H54.631V16.6366H57.131V22.0966C57.5577 21.6299 58.0577 21.2766 58.631 21.0366C59.2177 20.7966 59.8577 20.6766 60.551 20.6766ZM60.271 29.4766C61.191 29.4766 61.9444 29.1699 62.531 28.5566C63.131 27.9432 63.431 27.1366 63.431 26.1366C63.431 25.1366 63.131 24.3299 62.531 23.7166C61.9444 23.1032 61.191 22.7966 60.271 22.7966C59.671 22.7966 59.131 22.9366 58.651 23.2166C58.171 23.4832 57.791 23.8699 57.511 24.3766C57.231 24.8832 57.091 25.4699 57.091 26.1366C57.091 26.8032 57.231 27.3899 57.511 27.8966C57.791 28.4032 58.171 28.7966 58.651 29.0766C59.131 29.3432 59.671 29.4766 60.271 29.4766ZM72.2852 20.6766C73.8586 20.6766 75.0586 21.0566 75.8852 21.8166C76.7252 22.5632 77.1452 23.6966 77.1452 25.2166V31.4766H74.7852V30.1766C74.4786 30.6432 74.0386 31.0032 73.4652 31.2566C72.9052 31.4966 72.2252 31.6166 71.4252 31.6166C70.6252 31.6166 69.9252 31.4832 69.3252 31.2166C68.7252 30.9366 68.2586 30.5566 67.9252 30.0766C67.6052 29.5832 67.4452 29.0299 67.4452 28.4166C67.4452 27.4566 67.7986 26.6899 68.5052 26.1166C69.2252 25.5299 70.3519 25.2366 71.8852 25.2366H74.6452V25.0766C74.6452 24.3299 74.4186 23.7566 73.9652 23.3566C73.5252 22.9566 72.8652 22.7566 71.9852 22.7566C71.3852 22.7566 70.7919 22.8499 70.2052 23.0366C69.6319 23.2232 69.1452 23.4832 68.7452 23.8166L67.7652 21.9966C68.3252 21.5699 68.9986 21.2432 69.7852 21.0166C70.5719 20.7899 71.4052 20.6766 72.2852 20.6766ZM71.9452 29.7966C72.5719 29.7966 73.1252 29.6566 73.6052 29.3766C74.0986 29.0832 74.4452 28.6699 74.6452 28.1366V26.8966H72.0652C70.6252 26.8966 69.9052 27.3699 69.9052 28.3166C69.9052 28.7699 70.0852 29.1299 70.4452 29.3966C70.8052 29.6632 71.3052 29.7966 71.9452 29.7966ZM85.3513 31.6166C84.2447 31.6166 83.2513 31.3832 82.3713 30.9166C81.4913 30.4499 80.8047 29.8032 80.3113 28.9766C79.818 28.1366 79.5713 27.1899 79.5713 26.1366C79.5713 25.0832 79.818 24.1432 80.3113 23.3166C80.8047 22.4899 81.4847 21.8432 82.3513 21.3766C83.2313 20.9099 84.2313 20.6766 85.3513 20.6766C86.4047 20.6766 87.3247 20.8899 88.1113 21.3166C88.9113 21.7432 89.5113 22.3566 89.9113 23.1566L87.9913 24.2766C87.6847 23.7832 87.298 23.4166 86.8313 23.1766C86.378 22.9232 85.878 22.7966 85.3313 22.7966C84.398 22.7966 83.6247 23.1032 83.0113 23.7166C82.398 24.3166 82.0913 25.1232 82.0913 26.1366C82.0913 27.1499 82.3913 27.9632 82.9913 28.5766C83.6047 29.1766 84.3847 29.4766 85.3313 29.4766C85.878 29.4766 86.378 29.3566 86.8313 29.1166C87.298 28.8632 87.6847 28.4899 87.9913 27.9966L89.9113 29.1166C89.498 29.9166 88.8913 30.5366 88.0913 30.9766C87.3047 31.4032 86.3913 31.6166 85.3513 31.6166ZM96.3348 26.8966L94.4748 28.6566V31.4766H91.9748V16.6366H94.4748V25.5966L99.6548 20.7966H102.655L98.1948 25.2766L103.075 31.4766H100.035L96.3348 26.8966Z" fill="#332960"/>
</g>
<defs>
<filter id="filter0_d" x="0" y="0" width="122" height="57" filterUnits="userSpaceOnUse" color-interpolation-filters="sRGB">
<feFlood flood-opacity="0" result="BackgroundImageFix"/>
<feColorMatrix in="SourceAlpha" type="matrix" values="0 0 0 0 0 0 0 0 0 0 0 0 0 0 0 0 0 0 127 0"/>
<feOffset dy="4"/>
<feGaussianBlur stdDeviation="2"/>
<feColorMatrix type="matrix" values="0 0 0 0 0.196078 0 0 0 0 0.152941 0 0 0 0 0.372549 0 0 0 1 0"/>
<feBlend mode="normal" in2="BackgroundImageFix" result="effect1_dropShadow"/>
<feBlend mode="normal" in="SourceGraphic" in2="effect1_dropShadow" result="shape"/>
</filter>
</defs>
</svg>
