<svg width="153" height="146" viewBox="0 0 153 146" fill="none" xmlns="http://www.w3.org/2000/svg">
<path d="M16.1956 32.4689C14.5508 28.8902 15.7138 27.5178 15.7138 27.5178C15.7138 27.5178 17.3585 24.6166 19.2026 24.9988C21.0467 25.381 21.0467 23.8348 21.0467 23.8348C21.0467 23.8348 21.7943 21.9065 19.2026 21.5069C16.6109 21.1248 15.1489 23.1226 15.1489 23.1226C15.1655 22.0281 15.1489 20.8294 15.1489 20.8294C14.8831 15.0618 12.7068 15.9478 12.7068 15.9478C9.78281 16.8859 11.4441 20.3604 11.4441 20.3604C11.4441 20.3604 10.4141 17.6329 9.96556 16.1042C9.517 14.5754 9.21796 14.1237 8.48697 14.1758C7.75598 14.2106 7.30742 14.9228 7.00838 16.5037C6.70934 18.0672 8.12148 20.7599 8.12148 20.7599C7.22436 17.7024 5.5298 17.6677 5.5298 17.6677C5.5298 17.6677 4.05121 16.8859 4.05121 19.596C4.05121 22.3061 6.2774 24.2344 6.2774 24.2344C6.2774 24.2344 4.05121 20.7599 2.57262 20.3604C1.09403 19.9782 0.728541 20.7426 0.728541 20.7426C0.728541 20.7426 -0.750048 22.2887 1.84163 25.381C4.43331 28.4732 5.54641 31.1833 5.54641 31.1833C6.65951 34.2756 9.93233 35.9433 9.93233 35.9433L9.74959 35.7522C9.74959 35.7522 6.79241 38.8445 8.63649 41.5546C18.1227 55.435 22.8741 54.5143 22.8741 54.5143C17.3253 61.4806 18.0729 73.8496 18.0729 73.8496C11.793 79.2698 11.0454 91.2567 11.0454 91.2567C11.0454 91.2567 8.81924 105.571 14.3681 116.394C19.917 127.217 27.8747 131.595 27.8747 131.595C26.7616 135.382 27.8747 137.085 27.8747 137.085C33.4236 142.887 41.5641 139.013 41.5641 139.013C41.5641 141.341 43.4082 146.362 50.4357 145.979C57.4631 145.597 57.0976 135.921 60.4203 127.026C63.7429 118.132 45.6344 117.35 45.6344 117.35C50.4357 115.022 45.6344 111.547 45.6344 111.547C78.9276 103.435 77.8145 86.792 77.8145 86.792C78.2464 91.413 79.8745 98.5704 80.0406 105.745C80.3065 117.211 78.9275 128.555 78.9275 128.555C78.9275 128.555 77.8145 132.029 77.8145 137.832C77.8145 143.634 80.0406 142.852 80.0406 142.852C82.9978 142.071 82.6323 138.596 82.6323 138.596C82.6323 138.596 82.6323 140.924 82.9978 142.47C83.3633 144.016 84.4764 144.398 85.224 144.398C85.9716 144.398 86.7026 144.016 87.0681 142.47C87.4336 140.924 86.7026 138.214 86.7026 138.214C87.4502 141.306 88.9288 140.924 88.9288 140.924C90.7729 140.542 91.5205 138.996 90.7729 137.05C89.9422 134.896 88.1812 132.794 88.1812 132.794C88.1812 132.794 90.7729 132.412 91.1383 126.609C91.3709 123.013 99.6776 96.1209 102.967 84.8463C104.994 77.9321 106.622 68.6901 106.472 66.4838C106.107 60.6814 95.7402 52.5686 95.7402 52.5686C97.4016 52.1343 100.791 50.814 103.499 48.6946C105.226 47.3569 107.287 45.1333 109.048 40.9639C111.091 36.1344 110.443 32.7294 110.161 30.141C109.313 22.3582 103.98 8.84255 92.401 2.2932C90.8393 1.40721 82.3499 -2.98798 68.1621 3.42239C55.0874 9.32897 50.0369 20.065 48.9405 21.8196C46.1328 26.3538 47.0964 31.496 47.0964 31.496C29.7188 29.5677 19.1693 35.5611 16.3949 32.66L16.1956 32.4689Z" fill="#CCCCD0" fill-opacity="0.3"/>
<path d="M50.9675 31.6851C50.9675 31.6851 49.8544 16.2238 67.2485 7.32916C67.2485 7.32916 89.8094 5.40084 100.907 22.7905C100.907 22.7905 98.3155 34.7774 87.2177 46.3821C87.2011 46.3821 70.9367 32.4669 50.9675 31.6851Z" fill="white"/>
<path d="M92.5828 2.41406C104.445 9.18925 109.429 21.5583 110.409 29.4106C110.741 32.0338 111.223 36.4464 109.213 41.2759C107.485 45.4452 104.661 48.0511 102.933 49.354C100.192 51.4386 97.5169 52.342 95.839 52.7589L90.1738 48.329C90.1738 48.329 101.404 45.2889 103.863 32.4681C107.286 14.5052 92.5828 2.41406 92.5828 2.41406Z" fill="#AFB6B9"/>
<path d="M106.439 66.1169C106.439 66.1169 104.014 72.5794 102.004 80.8139C99.4785 91.1504 95.7239 105.552 92.0191 116.392C89.3942 124.071 87.9488 129.213 85.6894 131.211C85.6894 131.211 84.377 132.844 81.6191 132.965C81.6191 132.965 88.6134 134.998 90.2913 131.002C91.9692 127.007 97.0529 105.604 98.2657 101.626C99.4785 97.6476 104.413 83.6977 105.841 73.8302C107.27 63.9628 106.439 66.1169 106.439 66.1169Z" fill="#AFB6B9"/>
<path d="M76.1211 69.2109C76.1211 69.2109 76.1211 76.1772 77.7824 86.8091C79.4438 97.4409 62.4317 107.882 45.6024 111.565C45.6024 111.565 53.1781 93.9665 41.7148 89.7102C41.7148 89.7102 67.4157 105.71 76.1211 69.2109Z" fill="#AFB6B9"/>
<path d="M41.532 139.015C41.532 139.015 42.8279 134.568 43.5589 130.694C43.5589 130.694 20.267 122.963 25.0682 97.4258C25.0682 97.4258 17.8747 122.702 39.4055 133.473C39.4055 133.473 40.6681 139.623 29.72 138.633C29.7366 138.65 33.9564 142.298 41.532 139.015Z" fill="#AFB6B9"/>
<path d="M8.4375 41.3633C8.4375 41.3633 19.5352 53.3502 30.2508 47.93C30.2508 47.93 25.8151 50.6401 22.8579 54.4967C22.8579 54.5141 18.0899 56.6683 8.4375 41.3633Z" fill="#AFB6B9"/>
</svg>
