<svg width="111" height="146" viewBox="0 0 111 146" fill="none" xmlns="http://www.w3.org/2000/svg">
<path d="M16.1956 32.4689C14.5508 28.8902 15.7138 27.5178 15.7138 27.5178C15.7138 27.5178 17.3585 24.6166 19.2026 24.9988C21.0467 25.381 21.0467 23.8348 21.0467 23.8348C21.0467 23.8348 21.7943 21.9065 19.2026 21.5069C16.6109 21.1248 15.1489 23.1226 15.1489 23.1226C15.1655 22.0281 15.1489 20.8294 15.1489 20.8294C14.8831 15.0618 12.7068 15.9478 12.7068 15.9478C9.78281 16.8859 11.4441 20.3604 11.4441 20.3604C11.4441 20.3604 10.4141 17.6329 9.96556 16.1042C9.517 14.5754 9.21796 14.1237 8.48697 14.1758C7.75598 14.2106 7.30742 14.9228 7.00838 16.5037C6.70934 18.0672 8.12148 20.7599 8.12148 20.7599C7.22436 17.7024 5.5298 17.6677 5.5298 17.6677C5.5298 17.6677 4.05121 16.8859 4.05121 19.596C4.05121 22.3061 6.2774 24.2344 6.2774 24.2344C6.2774 24.2344 4.05121 20.7599 2.57262 20.3604C1.09403 19.9782 0.728541 20.7426 0.728541 20.7426C0.728541 20.7426 -0.750048 22.2887 1.84163 25.381C4.43331 28.4732 5.54641 31.1833 5.54641 31.1833C6.65951 34.2756 9.93233 35.9433 9.93233 35.9433L9.74959 35.7522C9.74959 35.7522 6.79241 38.8445 8.63649 41.5546C18.1227 55.435 22.8741 54.5143 22.8741 54.5143C17.3253 61.4806 18.0729 73.8496 18.0729 73.8496C11.793 79.2698 11.0454 91.2567 11.0454 91.2567C11.0454 91.2567 8.81924 105.571 14.3681 116.394C19.917 127.217 27.8747 131.595 27.8747 131.595C26.7616 135.382 27.8747 137.085 27.8747 137.085C33.4236 142.887 41.5641 139.013 41.5641 139.013C41.5641 141.341 43.4082 146.362 50.4357 145.979C57.4631 145.597 57.0976 135.921 60.4203 127.026C63.7429 118.132 45.6344 117.35 45.6344 117.35C50.4357 115.022 45.6344 111.547 45.6344 111.547C78.9276 103.435 77.8145 86.792 77.8145 86.792C78.2464 91.413 79.8745 98.5704 80.0406 105.745C80.3065 117.211 78.9275 128.555 78.9275 128.555C78.9275 128.555 77.8145 132.029 77.8145 137.832C77.8145 143.634 80.0406 142.852 80.0406 142.852C82.9978 142.071 82.6323 138.596 82.6323 138.596C82.6323 138.596 82.6323 140.924 82.9978 142.47C83.3633 144.016 84.4764 144.398 85.224 144.398C85.9716 144.398 86.7026 144.016 87.0681 142.47C87.4336 140.924 86.7026 138.214 86.7026 138.214C87.4502 141.306 88.9288 140.924 88.9288 140.924C90.7729 140.542 91.5205 138.996 90.7729 137.05C89.9422 134.896 88.1812 132.794 88.1812 132.794C88.1812 132.794 90.7729 132.412 91.1383 126.609C91.3709 123.013 99.6776 96.1209 102.967 84.8463C104.994 77.9321 106.622 68.6901 106.472 66.4838C106.107 60.6814 95.7402 52.5686 95.7402 52.5686C97.4016 52.1343 100.791 50.814 103.499 48.6946C105.226 47.3569 107.287 45.1333 109.048 40.9639C111.091 36.1344 110.443 32.7294 110.161 30.141C109.313 22.3582 103.98 8.84255 92.401 2.2932C90.8393 1.40721 82.3499 -2.98798 68.1621 3.42239C55.0874 9.32897 50.0369 20.065 48.9405 21.8196C46.1328 26.3538 47.0964 31.496 47.0964 31.496C29.7188 29.5677 19.1693 35.5611 16.3949 32.66L16.1956 32.4689Z" fill="#CCCCD0" fill-opacity="0.3"/>
</svg>
