<svg width="32" height="32" viewBox="0 0 32 32" fill="none" xmlns="http://www.w3.org/2000/svg">
<path d="M15.9938 0C15.9938 0 19.631 5.68446 27.6279 5.0113C27.6279 5.0113 25.9961 12.9147 32 16.0062C32 16.0062 26.2951 19.9081 27.877 26.7269C27.877 26.7269 20.5777 25.9914 16.7162 32C16.7162 32 12.942 25.5925 5.00739 27.6369C5.00739 27.6369 6.3153 20.9053 0 15.9938C0 15.9938 6.00389 12.6903 4.37213 4.99883C4.37213 5.02376 11.5843 7.03077 15.9938 0Z" fill="#171530"/>
<path d="M16 25C20.9706 25 25 20.9706 25 16C25 11.0294 20.9706 7 16 7C11.0294 7 7 11.0294 7 16C7 20.9706 11.0294 25 16 25Z" fill="white"/>
</svg>
