<svg width="305" height="288" viewBox="0 0 305 288" fill="none" xmlns="http://www.w3.org/2000/svg">
<g clip-path="url(#clip0)">
<path d="M25.9185 116.391V287.553H279.08V116.393L25.9185 116.391Z" fill="#332960"/>
<path d="M90.198 199.902H58.9062V242.41H90.198V199.902Z" fill="#F3F8EF"/>
<path d="M141.096 224.316H250.146" stroke="#F3F8EF" stroke-miterlimit="10"/>
<path d="M141.096 242.406H250.146" stroke="#F3F8EF" stroke-miterlimit="10"/>
<path d="M141.096 260.527H250.146" stroke="#F3F8EF" stroke-miterlimit="10"/>
<path d="M154.432 209.003L154.39 209.009L154.352 209.021L154.352 209.021L154.351 209.021L154.35 209.022L154.343 209.023C154.334 209.026 154.319 209.03 154.296 209.036C154.251 209.047 154.179 209.065 154.077 209.085C153.874 209.125 153.555 209.176 153.11 209.216C152.221 209.295 150.828 209.327 148.85 209.128C144.894 208.73 138.603 207.405 129.336 203.678C110.814 196.227 80.4412 179.193 33.1264 140.848L26.4998 118.728V116.662H278.556L273.897 140.871L273.822 140.934C273.683 141.051 273.476 141.225 273.204 141.452C272.66 141.905 271.856 142.572 270.815 143.423C268.734 145.125 265.708 147.564 261.929 150.512C254.371 156.408 243.805 164.337 231.772 172.467C219.739 180.599 206.245 188.928 192.832 195.628C179.412 202.331 166.103 207.389 154.432 209.003Z" fill="#332960" stroke="#F3F8EF"/>
<ellipse cx="229.302" cy="76.4341" rx="76.4341" ry="76.4341" fill="#B7B1D8"/>
<path d="M238.295 89.9223H220.31L215.814 26.9766H242.791L238.295 89.9223Z" fill="#F3F8EF"/>
<ellipse cx="229.302" cy="112.402" rx="13.4884" ry="13.4884" fill="#F3F8EF"/>
</g>
<defs>
<clipPath id="clip0">
<rect width="305" height="287.752" fill="white"/>
</clipPath>
</defs>
</svg>
