<svg width="32" height="32" viewBox="0 0 32 32" fill="none" xmlns="http://www.w3.org/2000/svg">
<path d="M11.7678 22.6752C17.792 22.6752 22.6757 17.7915 22.6757 11.7673C22.6757 5.74301 17.792 0.859375 11.7678 0.859375C5.7435 0.859375 0.859863 5.74301 0.859863 11.7673C0.859863 17.7915 5.7435 22.6752 11.7678 22.6752Z" fill="#171530"/>
<path d="M11.7682 19.3088C15.933 19.3088 19.3093 15.9326 19.3093 11.7677C19.3093 7.60284 15.933 4.22656 11.7682 4.22656C7.60333 4.22656 4.22705 7.60284 4.22705 11.7677C4.22705 15.9326 7.60333 19.3088 11.7682 19.3088Z" fill="white"/>
<path d="M18.4912 20.3168L30.0599 31.1828L31.329 29.7039L19.6869 18.9219L18.4912 20.3168Z" fill="#171530"/>
<path d="M21.3017 19.5592L19.0048 21.8772C19.0048 21.8772 18.8684 23.2826 20.4941 23.4294C20.4941 23.4294 20.5256 24.4678 21.543 24.6146C21.543 24.6146 21.6059 25.5061 22.6652 25.6949C22.6652 25.6949 22.833 26.5655 23.8714 26.8172C23.8714 26.8172 23.9133 27.5828 24.9307 27.7716C24.9307 27.7716 24.9726 28.6002 26.032 28.789C26.032 28.789 25.99 29.5127 27.0074 29.7015C27.0074 29.7015 27.0703 30.4252 27.9199 30.5301C27.9199 30.5301 27.9409 31.2328 28.7275 31.2957C28.7275 31.2957 28.7904 31.904 29.7029 31.9984L30.8147 30.8133L31.9894 29.5651C31.9894 29.5651 31.8425 28.9463 31.1293 28.7366C31.1293 28.7366 31.0664 28.1807 30.3427 27.9919C30.3427 27.9919 30.3217 27.2472 29.5141 27.1843C29.5141 27.1843 29.4512 26.4606 28.4967 26.1879C28.4967 26.1879 28.266 25.3174 27.4164 25.1286C27.4164 25.1286 27.3116 24.3419 26.3781 24.1531C26.3781 24.1531 26.1473 23.2826 25.1929 23.0519C25.1929 23.0519 24.9412 22.2443 24.0497 22.0555C24.0497 22.0555 23.8819 21.3108 22.8855 20.9752C22.8855 20.9752 22.5289 19.8319 21.3542 19.4648L21.3017 19.5592Z" fill="#B7B1D8"/>
</svg>
