<svg width="305" height="305" viewBox="0 0 305 305" fill="none" xmlns="http://www.w3.org/2000/svg">
<path d="M152.441 0C152.441 0 187.108 54.18 263.328 47.7639C263.328 47.7639 247.775 123.093 305 152.559C305 152.559 250.625 189.749 265.703 254.741C265.703 254.741 196.131 247.731 159.327 305C159.327 305 123.353 243.929 47.7267 263.414C47.7267 263.414 60.1927 199.254 0 152.441C0 152.441 57.2246 120.954 41.6719 47.6451C41.6719 47.8827 110.413 67.0121 152.441 0Z" fill="#171530"/>
<path d="M152.5 238.281C199.876 238.281 238.281 199.876 238.281 152.5C238.281 105.124 199.876 66.7188 152.5 66.7188C105.124 66.7188 66.7188 105.124 66.7188 152.5C66.7188 199.876 105.124 238.281 152.5 238.281Z" fill="white"/>
</svg>
