<svg width="305" height="288" viewBox="0 0 305 288" fill="none" xmlns="http://www.w3.org/2000/svg">
<g clip-path="url(#clip0)">
<rect width="305" height="287.752" fill="#332960"/>
<circle cx="199" cy="90" r="34" fill="#F3F8EF"/>
<circle cx="116" cy="90" r="34" fill="#F3F8EF"/>
<path d="M92.5 65L18.5 133L125.5 128.5L149 175H156L179 128.5H282L222 65L171.5 81H143L92.5 65Z" fill="#F3F8EF"/>
<circle cx="229" cy="183" r="73.5" fill="#332960" stroke="#F3F8EF" stroke-width="5"/>
<path fill-rule="evenodd" clip-rule="evenodd" d="M259.888 248.637C250.071 253.755 237.95 259 229.5 259C213 259 187.928 245.504 173 231V226.815V219.131C177.177 209.766 182.974 205.846 191.442 200.144C191.442 200.144 188.395 190.841 188.395 186.051C188.395 179.881 189.445 164.614 201.887 151.419C201.887 151.419 214.833 136.881 235.486 136.644C236.927 136.627 238.357 136.682 239.771 136.801C241.295 137.048 266.126 141.454 271.612 166.831C275.652 185.519 262.297 195.988 262.297 195.988L272.316 198.816L272.315 198.818C272.322 198.823 272.365 198.84 272.441 198.871C273.959 199.484 288.5 205.358 288.5 225.5C288.504 225.496 282.5 233 276.5 239C276.5 239 269.639 243.499 260.665 248.229C259.792 245.297 258.993 235.999 258.993 235.999C259.169 246.619 257.08 248.563 257.002 248.635C257.001 248.636 257 248.637 257 248.637H259.888ZM259.888 248.637H260.803C260.757 248.52 260.711 248.384 260.665 248.229C260.407 248.365 260.148 248.501 259.888 248.637ZM272.341 198.823L272.316 198.816C274.384 197.216 277.987 193.309 280.568 188.832C282.206 185.989 283.794 181.737 283.837 175.075C283.883 168.022 281.472 163.936 279.6 160.765C279.42 160.461 279.245 160.165 279.078 159.875C273.76 150.673 258.024 138.343 239.771 136.801C239.723 136.793 239.698 136.79 239.698 136.79C260.292 138.642 273.066 148.799 279.015 158.734C280.996 162.045 284.261 167.658 284.261 175.373C284.261 182.024 281.835 187.223 280.169 190.047C277.548 194.501 274.451 197.24 272.341 198.823ZM196.109 197.639C196.109 197.639 185.531 177.571 204.722 155.041C204.722 155.041 235.231 138.691 260.94 155.264C260.94 155.264 264.762 171.853 255.97 194.179C255.97 194.179 224.567 186.495 196.109 197.639ZM201.049 190.091C201.049 190.091 196.942 175.8 205.765 162.643L220.244 186.152C220.244 186.152 220.23 186.153 220.203 186.154C219.467 186.197 208.88 186.813 201.049 190.091Z" fill="#F3F8EF"/>
<circle cx="76" cy="183" r="73.5" fill="#332960" stroke="#F3F8EF" stroke-width="5"/>
<path fill-rule="evenodd" clip-rule="evenodd" d="M106.888 248.637C97.0712 253.755 84.9498 259 76.5 259C60 259 34.9283 245.504 20 231V226.815V219.131C24.1774 209.766 29.9736 205.846 38.4416 200.144C38.4416 200.144 35.3953 190.841 35.3953 186.051C35.3953 179.881 36.4445 164.614 48.8871 151.419C48.8871 151.419 61.8329 136.881 82.4861 136.644C83.927 136.627 85.3566 136.682 86.771 136.801C88.2954 137.048 113.126 141.454 118.612 166.831C122.652 185.519 109.297 195.988 109.297 195.988L119.316 198.816L119.315 198.818C119.322 198.823 119.365 198.84 119.441 198.871C120.959 199.484 135.5 205.358 135.5 225.5C135.504 225.496 129.5 233 123.5 239C123.5 239 116.639 243.499 107.665 248.229C106.792 245.297 105.993 235.999 105.993 235.999C106.169 246.619 104.08 248.563 104.002 248.635C104.001 248.636 104 248.637 104 248.637H106.888ZM106.888 248.637H107.803C107.757 248.52 107.711 248.384 107.665 248.229C107.407 248.365 107.148 248.501 106.888 248.637ZM119.341 198.823L119.316 198.816C121.384 197.216 124.987 193.309 127.568 188.832C129.206 185.989 130.794 181.737 130.837 175.075C130.883 168.022 128.472 163.936 126.6 160.765C126.42 160.461 126.245 160.165 126.078 159.875C120.76 150.673 105.024 138.343 86.771 136.801C86.7225 136.793 86.6976 136.79 86.6976 136.79C107.292 138.642 120.066 148.799 126.015 158.734C127.996 162.045 131.261 167.658 131.261 175.373C131.261 182.024 128.835 187.223 127.169 190.047C124.548 194.501 121.451 197.24 119.341 198.823ZM43.1094 197.639C43.1094 197.639 32.5312 177.571 51.7217 155.041C51.7217 155.041 82.2314 138.691 107.94 155.264C107.94 155.264 111.762 171.853 102.97 194.179C102.97 194.179 71.5674 186.495 43.1094 197.639ZM48.0492 190.091C48.0492 190.091 43.942 175.8 52.7649 162.643L67.2436 186.152C67.2436 186.152 67.2299 186.153 67.203 186.154C66.4669 186.197 55.8803 186.813 48.0492 190.091Z" fill="#F3F8EF"/>
</g>
<defs>
<clipPath id="clip0">
<rect width="305" height="287.752" fill="white"/>
</clipPath>
</defs>
</svg>
