<svg width="41" height="39" viewBox="0 0 41 39" fill="none" xmlns="http://www.w3.org/2000/svg">
<g clip-path="url(#clip0)">
<rect width="41" height="39" fill="#AFB6B9"/>
<ellipse cx="26.7509" cy="12.198" rx="4.57049" ry="4.60814" fill="#F0F0F1"/>
<ellipse cx="15.5934" cy="12.198" rx="4.57049" ry="4.60814" fill="#F0F0F1"/>
<path d="M12.4342 8.80859L2.48669 18.0249L16.8703 17.415L20.0293 23.7173H20.9703L24.0621 17.415H37.908L29.8424 8.80859L23.0539 10.9771H19.2228L12.4342 8.80859Z" fill="#F0F0F1"/>
<path d="M40 24.8044C40 29.9487 35.866 34.105 30.7837 34.105C25.7013 34.105 21.5673 29.9487 21.5673 24.8044C21.5673 19.6602 25.7013 15.5039 30.7837 15.5039C35.866 15.5039 40 19.6602 40 24.8044Z" fill="#AFB6B9" stroke="#F0F0F1" stroke-width="2"/>
<path fill-rule="evenodd" clip-rule="evenodd" d="M34.9351 33.699C33.6156 34.3926 31.9864 35.1033 30.8507 35.1033C28.6327 35.1033 25.2624 33.2741 23.2556 31.3084V30.7412V29.6998C23.8172 28.4305 24.5963 27.8992 25.7346 27.1263C25.7346 27.1263 25.3251 25.8655 25.3251 25.2163C25.3251 24.38 25.4662 22.3109 27.1388 20.5224C27.1388 20.5224 28.8791 18.5522 31.6554 18.5199C31.8475 18.5177 32.0381 18.525 32.2268 18.5409C32.3779 18.565 35.7678 19.1422 36.5116 22.6117C37.0548 25.1445 35.2595 26.5634 35.2595 26.5634L36.6064 26.9468C36.608 26.9477 36.6137 26.95 36.6231 26.9539C36.8271 27.0369 38.7818 27.833 38.7818 30.563C38.7824 30.5624 37.9753 31.5795 37.1687 32.3927C37.1687 32.3927 36.2464 33.0024 35.0401 33.6435C34.9228 33.2458 34.8154 31.9862 34.8154 31.9862C34.8391 33.4256 34.5582 33.689 34.5478 33.6987C34.5476 33.6989 34.5475 33.699 34.5475 33.699H34.9351ZM34.9351 33.699H35.0587C35.0525 33.6831 35.0463 33.6645 35.0401 33.6435C35.0053 33.662 34.9703 33.6805 34.9351 33.699ZM32.2992 18.5474C32.2751 18.5451 32.251 18.5429 32.2268 18.5409L32.2216 18.5401C32.2475 18.5424 32.2734 18.5449 32.2992 18.5474ZM32.2992 18.5474C32.3317 18.5507 32.3641 18.554 32.3963 18.5576C32.364 18.5539 32.3316 18.5506 32.2992 18.5474ZM32.3963 18.5576C34.7795 18.8252 36.8165 20.4494 37.5153 21.6686C37.5378 21.7078 37.5613 21.748 37.5854 21.7892C37.837 22.219 38.1612 22.7728 38.155 23.7287C38.1492 24.6316 37.9358 25.2079 37.7156 25.5932C37.3685 26.2001 36.884 26.7298 36.6061 26.9466L36.6064 26.9468L36.6097 26.9477C36.8933 26.7331 37.3097 26.362 37.662 25.7583C37.8859 25.3755 38.212 24.6708 38.212 23.7695C38.212 22.7238 37.7732 21.9631 37.5068 21.5143C36.7242 20.1964 35.0624 18.8496 32.3963 18.5576ZM26.3622 26.7874C26.3622 26.7874 24.9402 24.0675 27.5199 21.0141C27.5199 21.0141 31.6213 18.798 35.0771 21.0442C35.0771 21.0442 35.591 23.2925 34.4091 26.3185C34.4091 26.3185 30.1877 25.2771 26.3622 26.7874ZM27.0264 25.7634C27.0264 25.7634 26.4743 23.8264 27.6603 22.0433L29.6066 25.2294L29.6012 25.2298C29.5022 25.2356 28.0791 25.3191 27.0264 25.7634Z" fill="#F0F0F1"/>
<path d="M19.4328 24.8044C19.4328 29.9487 15.2987 34.105 10.2164 34.105C5.13404 34.105 1 29.9487 1 24.8044C1 19.6602 5.13404 15.5039 10.2164 15.5039C15.2987 15.5039 19.4328 19.6602 19.4328 24.8044Z" fill="#AFB6B9" stroke="#F0F0F1" stroke-width="2"/>
<path fill-rule="evenodd" clip-rule="evenodd" d="M14.3679 33.699C13.0484 34.3926 11.4192 35.1033 10.2835 35.1033C8.06546 35.1033 4.69516 33.2741 2.68842 31.3084V30.7412V29.6998C3.24997 28.4305 4.02913 27.8992 5.16745 27.1263C5.16745 27.1263 4.75795 25.8655 4.75795 25.2163C4.75795 24.38 4.89899 22.3109 6.57161 20.5224C6.57161 20.5224 8.31186 18.5522 11.0882 18.5199C11.2803 18.5177 11.4709 18.525 11.6596 18.5409C11.8107 18.565 15.2006 19.1422 15.9444 22.6117C16.4876 25.1445 14.6923 26.5634 14.6923 26.5634L16.0392 26.9468L16.0439 26.9489L16.0559 26.9539C16.2599 27.0369 18.2146 27.833 18.2146 30.563C18.2152 30.5624 17.4081 31.5795 16.6015 32.3927C16.6015 32.3927 15.6792 33.0024 14.4729 33.6435C14.3556 33.2458 14.2482 31.9862 14.2482 31.9862C14.2719 33.4256 13.991 33.689 13.9806 33.6987C13.9804 33.6989 13.9803 33.699 13.9803 33.699H14.3679ZM14.3679 33.699H14.4915C14.4853 33.6831 14.4791 33.6645 14.4729 33.6435C14.4381 33.662 14.4031 33.6805 14.3679 33.699ZM11.732 18.5474C11.7079 18.5451 11.6838 18.5429 11.6596 18.5409L11.6544 18.5401C11.6803 18.5424 11.7062 18.5449 11.732 18.5474ZM11.732 18.5474C11.7645 18.5507 11.7969 18.554 11.8291 18.5576C11.7968 18.5539 11.7644 18.5506 11.732 18.5474ZM11.8291 18.5576C14.2123 18.8252 16.2493 20.4494 16.9481 21.6686C16.9705 21.7077 16.9939 21.7477 17.018 21.7888L17.018 21.7888L17.0182 21.7891L17.0182 21.7892C17.2698 22.219 17.594 22.7728 17.5878 23.7287C17.582 24.6316 17.3686 25.2079 17.1484 25.5932C16.8013 26.2001 16.3168 26.7298 16.0389 26.9466L16.0392 26.9468L16.0425 26.9477C16.3261 26.7331 16.7425 26.362 17.0948 25.7583C17.3187 25.3755 17.6448 24.6708 17.6448 23.7695C17.6448 22.7238 17.206 21.9631 16.9396 21.5143C16.157 20.1964 14.4952 18.8496 11.8291 18.5576ZM5.79502 26.7874C5.79502 26.7874 4.37304 24.0675 6.95274 21.0141C6.95274 21.0141 11.0541 18.798 14.5099 21.0442C14.5099 21.0442 15.0238 23.2925 13.8419 26.3185C13.8419 26.3185 9.62053 25.2771 5.79502 26.7874ZM6.45922 25.7634C6.45922 25.7634 5.90709 23.8264 7.09313 22.0433L9.03944 25.2294L9.03398 25.2298C8.93499 25.2356 7.5119 25.3191 6.45922 25.7634Z" fill="#F0F0F1"/>
</g>
<defs>
<clipPath id="clip0">
<rect width="41" height="39" fill="white"/>
</clipPath>
</defs>
</svg>
