<svg width="32" height="32" viewBox="0 0 32 32" fill="none" xmlns="http://www.w3.org/2000/svg">
<g clip-path="url(#clip0)">
<path d="M32 0H0V32H32V0Z" fill="#332960"/>
<path d="M31.0731 31.9999H0V27.4922V25.4768C1.09572 23.0203 2.61602 21.9921 4.83714 20.4964C4.83714 20.4964 4.03811 18.0563 4.03811 16.8C4.03811 15.1815 4.31332 11.1771 7.57696 7.71604C7.57696 7.71604 10.9726 3.90301 16.3898 3.8406C21.6454 3.78024 26.3209 7.33341 27.8238 9.93409C28.3241 10.8006 29.0852 11.8933 29.0719 13.921C29.0607 15.6685 28.6443 16.7836 28.2146 17.5295C27.5373 18.704 26.592 19.7291 26.0497 20.1486C26.0886 20.1782 31.0352 21.3128 31.0997 27.9741C31.1007 27.9731 31.1007 30.1563 31.0731 31.9999Z" fill="#F3F8EF"/>
<path d="M6.06123 19.8394C6.06123 19.8394 3.28663 14.5756 8.3202 8.6663C8.3202 8.6663 16.3228 4.37753 23.0659 8.72462C23.0659 8.72462 24.0685 13.0758 21.7625 18.9319C21.7625 18.9319 13.5256 16.9164 6.06123 19.8394Z" fill="#171530"/>
<path d="M17.4946 3.87891C22.8965 4.36487 26.2471 7.02898 27.8073 9.63477C28.327 10.5034 29.1834 11.9756 29.1834 13.9992C29.1834 15.7436 28.547 17.1074 28.1101 17.8481C27.4226 19.0164 26.6103 19.7346 26.0568 20.15L23.4224 19.4062C23.4224 19.4062 26.9254 16.6603 25.8655 11.7587C24.381 4.89074 17.4946 3.87891 17.4946 3.87891Z" fill="#B7B1D8"/>
<path d="M7.35737 17.8596C7.35737 17.8596 6.28006 14.111 8.59427 10.6602L12.392 16.8263C12.392 16.8273 9.4864 16.9685 7.35737 17.8596Z" fill="#F9F9E0"/>
<path d="M22.5394 28.6875C22.5394 28.6875 22.7716 31.3895 23.0141 32.0023H22.0166C22.0166 32.0013 22.5865 31.5255 22.5394 28.6875Z" fill="#B7B1D8"/>
</g>
<defs>
<clipPath id="clip0">
<rect width="32" height="32" fill="white"/>
</clipPath>
</defs>
</svg>
