<svg width="305" height="288" viewBox="0 0 305 288" fill="none" xmlns="http://www.w3.org/2000/svg">
<g clip-path="url(#clip0)">
<rect width="305" height="287.752" fill="#332960"/>
<path d="M152.115 126.322C152.115 126.322 140.619 142.257 98.9083 132.439L96.3149 131.099C106.469 112.811 117.202 71.133 78.8969 50.7213C48.888 31.1658 -13.7456 -19.1768 -24.208 -64.1036L-149.229 109.971C-149.229 109.971 -147.417 164.503 21.5042 237C53.5276 250.684 78.4192 213.663 79.8448 211.491C87.2867 216.582 111.309 232.119 139.724 241.129L187.919 253.945C187.919 253.945 236.01 266.469 241.139 249.757C246.267 233.044 240.496 238.776 209.677 222.99C258.809 244.61 279.827 229.081 280.686 215.937C281.545 202.794 276.153 197.326 241.9 194.559C274.57 193.582 283.192 190.581 286.422 175.01C285.012 166.767 282.337 161.587 265.211 160.204C257.533 159.556 251.249 158.837 246.651 158.241C258.757 159.11 279.321 156.975 281.25 132.928C281.25 132.928 285.347 106.902 223.702 117.103C223.702 117.103 211.041 119.61 199.619 122.373C199.619 122.373 217.175 101.691 206.862 74.0826C196.597 46.3977 178.001 59.0189 178.001 59.0189C178.001 59.0189 161.695 62.5871 170.236 82.0974C178.764 101.545 152.115 126.322 152.115 126.322Z" fill="#F3F8EF"/>
<path d="M234 156.5C272.8 154.5 281.167 136.667 280.5 128C282.355 133.072 281.549 146.891 269.5 154C258.39 160.555 241.167 158.333 234 156.5Z" fill="#B7B1D8"/>
<path d="M231.5 193.5C260.7 194.7 280.333 181.667 286.5 175C286.181 181.254 279.456 194.566 264 195C249.801 195.399 236.333 194.333 231.5 193.5Z" fill="#B7B1D8"/>
<path d="M183 211.5C238.2 231.1 270.667 225.333 280 220C278.667 224.167 271.8 233.2 255 234C238.2 234.8 218.667 227.167 211 223.5L183 211.5Z" fill="#B7B1D8"/>
<path d="M64.335 200C68.375 204.283 77.1283 209.995 81 212.315C80.3267 214.457 77.465 220.346 71.405 226.771C63.83 234.803 56.255 239.622 47.165 241.763C38.075 243.905 29.49 242.834 23.935 241.763C19.491 240.907 2.89333 231.412 -6.87 226.771L-18.485 215.527L-20 210.709C-7.20667 220.346 22.824 237.801 40.6 230.519C58.376 223.238 63.83 207.139 64.335 200Z" fill="#B7B1D8"/>
<path d="M59.0001 148.499C63.4001 132.499 79.8334 129.165 87.5001 129.499C90.8448 119.219 92.8382 103.996 78 98.5C31.6 99.7 28 139.333 32 159C34.6667 169.333 43.8002 191.4 59.0001 197C57.3913 194.167 54.3391 185.9 55.0001 175.5C54.5001 173.166 54.6001 164.499 59.0001 148.499Z" fill="#B7B1D8"/>
</g>
<defs>
<clipPath id="clip0">
<rect width="305" height="287.752" fill="white"/>
</clipPath>
</defs>
</svg>
