<svg width="35" height="35" viewBox="0 0 35 35" fill="none" xmlns="http://www.w3.org/2000/svg">
<path fill-rule="evenodd" clip-rule="evenodd" d="M31.7187 0H3.28125C1.47656 0 0 1.47656 0 3.28125V31.7188C0 33.5234 1.47656 35 3.28125 35H31.7187C33.5234 35 34.9999 33.5234 34.9999 31.7188V3.28125C34.9999 1.47656 33.5234 0 31.7187 0ZM12.3074 5.32372H22.6932C26.5933 5.32372 29.7823 8.47323 29.7823 12.321V22.679C29.7823 26.5274 26.5933 29.6763 22.6932 29.6763H12.3074C8.40798 29.6763 5.21839 26.5274 5.21839 22.679V12.321C5.21839 8.47317 8.40798 5.32372 12.3074 5.32372ZM17.4341 10.9251C21.2237 10.9251 24.2996 14.0004 24.2996 17.7906C24.2996 21.5809 21.2237 24.6555 17.4342 24.6555C13.6432 24.6555 10.5686 21.5809 10.5686 17.7906C10.5686 14.0004 13.6432 10.9251 17.4341 10.9251ZM17.4341 13.244C19.9435 13.244 21.9808 15.28 21.9808 17.7907C21.9808 20.3007 19.9435 22.3373 17.4341 22.3373C14.9234 22.3373 12.8868 20.3007 12.8868 17.7907C12.8868 15.28 14.9234 13.2439 17.4341 13.2439V13.244ZM24.0761 9.97369C24.6917 9.97369 25.1904 10.4723 25.1904 11.0879C25.1904 11.7035 24.6917 12.2028 24.0761 12.2028C23.4606 12.2028 22.9613 11.7035 22.9613 11.0879C22.9613 10.4723 23.4606 9.97369 24.0761 9.97369ZM13.1556 7.31314H21.8451C25.1077 7.31314 27.776 9.96789 27.776 13.2123V21.9452C27.776 25.1897 25.1077 27.8444 21.8451 27.8444H13.1555C9.89363 27.8444 7.22466 25.1897 7.22466 21.9452V13.2123C7.22466 9.96784 9.89363 7.31314 13.1555 7.31314H13.1556Z" fill="#AFB6B9"/>
</svg>
