<svg width="35" height="35" viewBox="0 0 35 35" fill="none" xmlns="http://www.w3.org/2000/svg">
<path fill-rule="evenodd" clip-rule="evenodd" d="M31.7187 0H3.28125C1.47656 0 0 1.47656 0 3.28125V31.7188C0 33.5234 1.47656 35 3.28125 35H31.7187C33.5234 35 34.9999 33.5234 34.9999 31.7188V3.28125C34.9999 1.47656 33.5234 0 31.7187 0ZM13.1245 28.4374H8.75033V13.1246H13.1245V28.4374ZM10.9368 10.9368C9.72765 10.9368 8.74967 9.95887 8.74967 8.74967C8.74967 7.53988 9.72759 6.56195 10.9368 6.56195C12.1466 6.56195 13.1245 7.53988 13.1245 8.74967C13.1245 9.95881 12.1466 10.9368 10.9368 10.9368ZM28.4374 28.4374H24.0632V19.6878C24.0632 18.478 23.0847 17.5001 21.8755 17.5001C20.6657 17.5001 19.6878 18.478 19.6878 19.6878V28.4374H15.3122V13.1246H19.6878V15.8394C20.5888 14.6005 21.9711 13.1246 23.5155 13.1246C26.2368 13.1246 28.4374 15.5726 28.4374 18.5936V28.4374H28.4374Z" fill="#AFB6B9"/>
</svg>
