<svg width="434" height="95" viewBox="0 0 434 95" fill="none" xmlns="http://www.w3.org/2000/svg">
<g clip-path="url(#clip0)">
<path d="M153.296 46.0917H158.708V58.3677C157.124 59.6291 155.276 60.5971 153.164 61.2717C151.052 61.9464 148.881 62.2838 146.652 62.2838C143.513 62.2838 140.683 61.6091 138.16 60.2597C135.637 58.8811 133.657 56.9891 132.22 54.5837C130.783 52.1784 130.064 49.4651 130.064 46.4437C130.064 43.4224 130.783 40.7091 132.22 38.3037C133.657 35.8984 135.637 34.0211 138.16 32.6717C140.712 31.2931 143.572 30.6037 146.74 30.6037C149.321 30.6037 151.668 31.0291 153.78 31.8797C155.892 32.7304 157.667 33.9771 159.104 35.6197L155.496 39.1397C153.149 36.7931 150.319 35.6197 147.004 35.6197C144.833 35.6197 142.897 36.0744 141.196 36.9838C139.524 37.8931 138.204 39.1691 137.236 40.8117C136.297 42.4544 135.828 44.3317 135.828 46.4437C135.828 48.4971 136.297 50.3451 137.236 51.9877C138.204 53.6304 139.524 54.9211 141.196 55.8597C142.897 56.7984 144.819 57.2677 146.96 57.2677C149.365 57.2677 151.477 56.7397 153.296 55.6837V46.0917ZM170.96 41.7797C172.544 39.3157 175.331 38.0837 179.32 38.0837V43.3197C178.851 43.2317 178.426 43.1877 178.044 43.1877C175.903 43.1877 174.231 43.8184 173.028 45.0797C171.826 46.3117 171.224 48.1011 171.224 50.4477V61.8438H165.724V38.3477H170.96V41.7797ZM194.331 62.1518C191.955 62.1518 189.814 61.6384 187.907 60.6117C186 59.5851 184.504 58.1624 183.419 56.3438C182.363 54.4957 181.835 52.4131 181.835 50.0957C181.835 47.7784 182.363 45.7104 183.419 43.8917C184.504 42.0731 186 40.6504 187.907 39.6238C189.814 38.5971 191.955 38.0837 194.331 38.0837C196.736 38.0837 198.892 38.5971 200.799 39.6238C202.706 40.6504 204.187 42.0731 205.243 43.8917C206.328 45.7104 206.871 47.7784 206.871 50.0957C206.871 52.4131 206.328 54.4957 205.243 56.3438C204.187 58.1624 202.706 59.5851 200.799 60.6117C198.892 61.6384 196.736 62.1518 194.331 62.1518ZM194.331 57.4437C196.355 57.4437 198.027 56.7691 199.347 55.4197C200.667 54.0704 201.327 52.2957 201.327 50.0957C201.327 47.8957 200.667 46.1211 199.347 44.7717C198.027 43.4224 196.355 42.7477 194.331 42.7477C192.307 42.7477 190.635 43.4224 189.315 44.7717C188.024 46.1211 187.379 47.8957 187.379 50.0957C187.379 52.2957 188.024 54.0704 189.315 55.4197C190.635 56.7691 192.307 57.4437 194.331 57.4437ZM248.138 38.3477L239.47 61.8438H234.19L228.118 45.6517L221.958 61.8438H216.678L208.054 38.3477H213.246L219.45 55.6837L225.918 38.3477H230.538L236.874 55.7717L243.254 38.3477H248.138ZM273.49 38.3477L262.49 63.7358C261.463 66.2878 260.217 68.0771 258.75 69.1038C257.283 70.1598 255.509 70.6878 253.426 70.6878C252.253 70.6878 251.094 70.4971 249.95 70.1158C248.806 69.7344 247.867 69.2064 247.134 68.5318L249.334 64.4838C249.862 64.9824 250.478 65.3784 251.182 65.6718C251.915 65.9651 252.649 66.1118 253.382 66.1118C254.35 66.1118 255.142 65.8624 255.758 65.3638C256.403 64.8651 256.99 64.0291 257.518 62.8558L257.914 61.9318L247.662 38.3477H253.382L260.774 55.7277L268.21 38.3477H273.49ZM283.887 62.1518C281.98 62.1518 280.117 61.9024 278.299 61.4037C276.48 60.9051 275.028 60.2744 273.943 59.5117L276.055 55.3317C277.111 56.0357 278.372 56.6077 279.839 57.0477C281.335 57.4584 282.801 57.6637 284.239 57.6637C287.524 57.6637 289.167 56.7984 289.167 55.0677C289.167 54.2464 288.741 53.6744 287.891 53.3517C287.069 53.0291 285.735 52.7211 283.887 52.4277C281.951 52.1344 280.367 51.7971 279.135 51.4157C277.932 51.0344 276.876 50.3744 275.967 49.4357C275.087 48.4677 274.647 47.1331 274.647 45.4317C274.647 43.2024 275.571 41.4277 277.419 40.1077C279.296 38.7584 281.819 38.0837 284.987 38.0837C286.6 38.0837 288.213 38.2744 289.827 38.6557C291.44 39.0077 292.76 39.4917 293.787 40.1077L291.675 44.2877C289.68 43.1144 287.436 42.5277 284.943 42.5277C283.329 42.5277 282.097 42.7771 281.247 43.2757C280.425 43.7451 280.015 44.3757 280.015 45.1677C280.015 46.0477 280.455 46.6784 281.335 47.0597C282.244 47.4117 283.637 47.7491 285.515 48.0717C287.392 48.3651 288.932 48.7024 290.135 49.0837C291.337 49.4651 292.364 50.1104 293.215 51.0197C294.095 51.9291 294.535 53.2197 294.535 54.8917C294.535 57.0917 293.581 58.8517 291.675 60.1717C289.768 61.4917 287.172 62.1518 283.887 62.1518ZM312.295 38.0837C314.583 38.0837 316.622 38.5824 318.411 39.5797C320.23 40.5771 321.652 41.9851 322.679 43.8037C323.706 45.6224 324.219 47.7197 324.219 50.0957C324.219 52.4717 323.706 54.5837 322.679 56.4317C321.652 58.2504 320.23 59.6584 318.411 60.6557C316.622 61.6531 314.583 62.1518 312.295 62.1518C309.127 62.1518 306.619 61.0957 304.771 58.9837V70.3798H299.271V38.3477H304.507V41.4277C305.416 40.3131 306.531 39.4771 307.851 38.9197C309.2 38.3624 310.682 38.0837 312.295 38.0837ZM311.679 57.4437C313.703 57.4437 315.36 56.7691 316.651 55.4197C317.971 54.0704 318.631 52.2957 318.631 50.0957C318.631 47.8957 317.971 46.1211 316.651 44.7717C315.36 43.4224 313.703 42.7477 311.679 42.7477C310.359 42.7477 309.171 43.0557 308.115 43.6717C307.059 44.2584 306.223 45.1091 305.607 46.2237C304.991 47.3384 304.683 48.6291 304.683 50.0957C304.683 51.5624 304.991 52.8531 305.607 53.9677C306.223 55.0824 307.059 55.9477 308.115 56.5637C309.171 57.1504 310.359 57.4437 311.679 57.4437ZM338.11 38.0837C341.572 38.0837 344.212 38.9197 346.03 40.5917C347.878 42.2344 348.802 44.7277 348.802 48.0717V61.8438H343.61V58.9837C342.936 60.0104 341.968 60.8024 340.706 61.3597C339.474 61.8877 337.978 62.1518 336.218 62.1518C334.458 62.1518 332.918 61.8584 331.598 61.2717C330.278 60.6557 329.252 59.8197 328.518 58.7637C327.814 57.6784 327.462 56.4611 327.462 55.1117C327.462 52.9997 328.24 51.3131 329.794 50.0517C331.378 48.7611 333.857 48.1157 337.23 48.1157H343.302V47.7637C343.302 46.1211 342.804 44.8597 341.806 43.9797C340.838 43.0997 339.386 42.6597 337.45 42.6597C336.13 42.6597 334.825 42.8651 333.534 43.2757C332.273 43.6864 331.202 44.2584 330.322 44.9917L328.166 40.9877C329.398 40.0491 330.88 39.3304 332.61 38.8317C334.341 38.3331 336.174 38.0837 338.11 38.0837ZM337.362 58.1477C338.741 58.1477 339.958 57.8397 341.014 57.2237C342.1 56.5784 342.862 55.6691 343.302 54.4957V51.7677H337.626C334.458 51.7677 332.874 52.8091 332.874 54.8917C332.874 55.8891 333.27 56.6811 334.062 57.2677C334.854 57.8544 335.954 58.1477 337.362 58.1477ZM366.856 62.1518C364.421 62.1518 362.236 61.6384 360.3 60.6117C358.364 59.5851 356.853 58.1624 355.768 56.3438C354.682 54.4957 354.14 52.4131 354.14 50.0957C354.14 47.7784 354.682 45.7104 355.768 43.8917C356.853 42.0731 358.349 40.6504 360.256 39.6238C362.192 38.5971 364.392 38.0837 366.856 38.0837C369.173 38.0837 371.197 38.5531 372.928 39.4917C374.688 40.4304 376.008 41.7797 376.888 43.5397L372.664 46.0037C371.989 44.9184 371.138 44.1117 370.112 43.5837C369.114 43.0264 368.014 42.7477 366.812 42.7477C364.758 42.7477 363.057 43.4224 361.708 44.7717C360.358 46.0917 359.684 47.8664 359.684 50.0957C359.684 52.3251 360.344 54.1144 361.664 55.4637C363.013 56.7837 364.729 57.4437 366.812 57.4437C368.014 57.4437 369.114 57.1797 370.112 56.6517C371.138 56.0944 371.989 55.2731 372.664 54.1877L376.888 56.6517C375.978 58.4117 374.644 59.7757 372.884 60.7437C371.153 61.6824 369.144 62.1518 366.856 62.1518ZM403.386 50.2278C403.386 50.6091 403.357 51.1517 403.298 51.8557H384.862C385.185 53.5864 386.021 54.9651 387.37 55.9917C388.749 56.9891 390.45 57.4877 392.474 57.4877C395.056 57.4877 397.182 56.6371 398.854 54.9357L401.802 58.3237C400.746 59.5851 399.412 60.5384 397.798 61.1837C396.185 61.8291 394.366 62.1518 392.342 62.1518C389.761 62.1518 387.488 61.6384 385.522 60.6117C383.557 59.5851 382.032 58.1624 380.946 56.3438C379.89 54.4957 379.362 52.4131 379.362 50.0957C379.362 47.8077 379.876 45.7544 380.902 43.9357C381.958 42.0877 383.41 40.6504 385.258 39.6238C387.106 38.5971 389.189 38.0837 391.506 38.0837C393.794 38.0837 395.833 38.5971 397.622 39.6238C399.441 40.6211 400.849 42.0437 401.846 43.8917C402.873 45.7104 403.386 47.8224 403.386 50.2278ZM391.506 42.4837C389.746 42.4837 388.25 43.0117 387.018 44.0677C385.816 45.0944 385.082 46.4731 384.818 48.2037H398.15C397.916 46.5024 397.197 45.1237 395.994 44.0677C394.792 43.0117 393.296 42.4837 391.506 42.4837Z" fill="black"/>
<path d="M94.7168 0.222656H0.220703V94.7796H94.7168V0.222656Z" stroke="black" stroke-width="0.5" stroke-miterlimit="10"/>
<path d="M94.8319 0.222656H0.220703V94.8948H94.8319V0.222656Z" fill="#332960"/>
<path d="M94.8326 59.5691C84.6302 44.0962 59.2217 42.2263 59.2217 42.2263L61.5863 38.3359C90.7676 48.8462 90.803 52.5771 94.8326 56.1041V59.5691Z" fill="#F4FAFC"/>
<path d="M22.1585 27.0396C21.2817 25.214 21.9016 24.5139 21.9016 24.5139C21.9016 24.5139 22.7784 23.034 23.7615 23.2289C24.7445 23.4239 24.7445 22.6352 24.7445 22.6352C24.7445 22.6352 25.143 21.6515 23.7615 21.4477C22.3799 21.2527 21.6005 22.2718 21.6005 22.2718C21.6094 21.7135 21.6005 21.1021 21.6005 21.1021C21.4588 18.1599 20.2987 18.6119 20.2987 18.6119C18.74 19.0904 19.6256 20.8628 19.6256 20.8628C19.6256 20.8628 19.0765 19.4715 18.8374 18.6916C18.5983 17.9118 18.4389 17.6813 18.0492 17.7079C17.6595 17.7257 17.4204 18.089 17.261 18.8954C17.1016 19.693 17.8543 21.0666 17.8543 21.0666C17.3761 19.5069 16.4728 19.4892 16.4728 19.4892C16.4728 19.4892 15.6846 19.0904 15.6846 20.4729C15.6846 21.8553 16.8713 22.839 16.8713 22.839C16.8713 22.839 15.6846 21.0666 14.8964 20.8628C14.1082 20.6678 13.9133 21.0577 13.9133 21.0577C13.9133 21.0577 13.1251 21.8465 14.5067 23.4239C15.8883 25.0013 16.4816 26.3838 16.4816 26.3838C17.075 27.9612 18.8197 28.8119 18.8197 28.8119L18.7223 28.7145C18.7223 28.7145 17.1458 30.2919 18.1289 31.6744C23.1858 38.755 25.7187 38.2854 25.7187 38.2854C22.7607 41.839 23.1592 48.1487 23.1592 48.1487C19.8116 50.9136 19.413 57.0284 19.413 57.0284C19.413 57.0284 18.2263 64.3306 21.1843 69.8516C24.1423 75.3726 28.3844 77.6058 28.3844 77.6058C27.791 79.5377 28.3844 80.4062 28.3844 80.4062C31.3424 83.3661 35.682 81.3898 35.682 81.3898C35.682 82.5773 36.665 85.1384 40.4112 84.9435C44.1574 84.7485 43.9625 79.8124 45.7338 75.2751C47.505 70.7378 37.8517 70.339 37.8517 70.339C40.4112 69.1515 37.8517 67.3791 37.8517 67.3791C55.5996 63.2406 55.0063 54.7508 55.0063 54.7508C55.2365 57.1081 56.1044 60.7592 56.193 64.4192C56.3347 70.2681 55.5996 76.0549 55.5996 76.0549C55.5996 76.0549 55.0063 77.8273 55.0063 80.7872C55.0063 83.7471 56.193 83.3483 56.193 83.3483C57.7694 82.9495 57.5746 81.1771 57.5746 81.1771C57.5746 81.1771 57.5746 82.3647 57.7694 83.1534C57.9643 83.9421 58.5576 84.137 58.9562 84.137C59.3547 84.137 59.7444 83.9421 59.9392 83.1534C60.134 82.3647 59.7444 80.9822 59.7444 80.9822C60.1429 82.5596 60.9311 82.3647 60.9311 82.3647C61.9141 82.1697 62.3127 81.381 61.9141 80.3884C61.4713 79.2896 60.5326 78.2173 60.5326 78.2173C60.5326 78.2173 61.9141 78.0223 62.109 75.0624C62.233 73.228 66.6611 59.5097 68.4146 53.7583C69.4951 50.2313 70.363 45.5167 70.2833 44.3912C70.0884 41.4313 64.5621 37.2928 64.5621 37.2928C65.4478 37.0713 67.2544 36.3978 68.698 35.3166C69.6191 34.6342 70.7172 33.4999 71.656 31.373C72.7453 28.9094 72.3999 27.1725 72.2494 25.8521C71.7977 21.8819 68.9548 14.9873 62.782 11.6464C61.9496 11.1944 57.424 8.95234 49.8608 12.2224C42.8909 15.2355 40.1986 20.7121 39.6141 21.6072C38.1174 23.9202 38.6311 26.5433 38.6311 26.5433C29.3675 25.5596 23.7437 28.617 22.2648 27.137L22.1585 27.0396Z" fill="#F3F8EF"/>
<path d="M40.6947 26.6404C40.6947 26.6404 40.1013 18.7533 49.3738 14.216C49.3738 14.216 61.4005 13.2323 67.3165 22.1031C67.3165 22.1031 65.9349 28.2179 60.019 34.1376C60.0101 34.1376 51.3399 27.0392 40.6947 26.6404Z" fill="#171530"/>
<path d="M62.8794 11.707C69.2027 15.1632 71.8596 21.4729 72.3821 25.4785C72.5592 26.8166 72.8161 29.0676 71.7445 31.5312C70.8234 33.6581 69.3179 34.9873 68.3968 35.652C66.9355 36.7154 65.5097 37.1762 64.6152 37.3889L61.5952 35.1291C61.5952 35.1291 67.582 33.5783 68.8928 27.0382C70.7171 17.8749 62.8794 11.707 62.8794 11.707Z" fill="#B7B1D8"/>
<path d="M70.2654 44.2031C70.2654 44.2031 68.9724 47.4997 67.9008 51.7003C66.5546 56.9731 64.5531 64.3197 62.5782 69.8495C61.1789 73.7665 60.4084 76.3896 59.204 77.4088C59.204 77.4088 58.5043 78.2418 57.0342 78.3038C57.0342 78.3038 60.7627 79.3407 61.6571 77.3024C62.5516 75.2642 65.2616 64.3463 65.9081 62.3169C66.5546 60.2875 69.1849 53.1713 69.9466 48.1378C70.7082 43.1042 70.2654 44.2031 70.2654 44.2031Z" fill="#B7B1D8"/>
<path d="M54.103 45.7812C54.103 45.7812 54.103 49.3349 54.9886 54.7584C55.8742 60.1819 46.8055 65.5079 37.8341 67.3867C37.8341 67.3867 41.8725 58.4095 35.7617 56.2383C35.7617 56.2383 49.4623 64.4002 54.103 45.7812Z" fill="#B7B1D8"/>
<path d="M35.6643 81.3874C35.6643 81.3874 36.355 79.1187 36.7447 77.1425C36.7447 77.1425 24.3283 73.1989 26.8877 60.1719C26.8877 60.1719 23.053 73.066 34.5307 78.5604C34.5307 78.5604 35.2037 81.6975 29.3675 81.1924C29.3763 81.2013 31.6258 83.0623 35.6643 81.3874Z" fill="#B7B1D8"/>
<path d="M18.0225 31.5742C18.0225 31.5742 23.9384 37.689 29.6507 34.924C29.6507 34.924 27.2861 36.3065 25.7097 38.2738C25.7097 38.2827 23.1679 39.3816 18.0225 31.5742Z" fill="#B7B1D8"/>
<path d="M43.6701 25.4709C43.6701 25.4709 43.059 20.4994 47.5934 16.7773L48.7802 26.6407C48.7802 26.6407 46.8052 25.657 43.6701 25.4709Z" fill="#F9F9E0"/>
</g>
<defs>
<clipPath id="clip0">
<rect width="434" height="95" fill="white"/>
</clipPath>
</defs>
</svg>
