<svg width="282" height="375" viewBox="0 0 282 375" fill="none" xmlns="http://www.w3.org/2000/svg">
<g clip-path="url(#clip0)">
<path d="M25.168 322.666H30.58V334.942C28.996 336.203 27.148 337.171 25.036 337.846C22.924 338.521 20.7533 338.858 18.524 338.858C15.3853 338.858 12.5547 338.183 10.032 336.834C7.50933 335.455 5.52933 333.563 4.092 331.158C2.65467 328.753 1.936 326.039 1.936 323.018C1.936 319.997 2.65467 317.283 4.092 314.878C5.52933 312.473 7.50933 310.595 10.032 309.246C12.584 307.867 15.444 307.178 18.612 307.178C21.1933 307.178 23.54 307.603 25.652 308.454C27.764 309.305 29.5387 310.551 30.976 312.194L27.368 315.714C25.0213 313.367 22.1907 312.194 18.876 312.194C16.7053 312.194 14.7693 312.649 13.068 313.558C11.396 314.467 10.076 315.743 9.108 317.386C8.16933 319.029 7.7 320.906 7.7 323.018C7.7 325.071 8.16933 326.919 9.108 328.562C10.076 330.205 11.396 331.495 13.068 332.434C14.7693 333.373 16.6907 333.842 18.832 333.842C21.2373 333.842 23.3493 333.314 25.168 332.258V322.666ZM42.8323 318.354C44.4163 315.89 47.2029 314.658 51.1923 314.658V319.894C50.7229 319.806 50.2976 319.762 49.9163 319.762C47.7749 319.762 46.1029 320.393 44.9003 321.654C43.6976 322.886 43.0963 324.675 43.0963 327.022V338.418H37.5963V314.922H42.8323V318.354ZM66.2032 338.726C63.8272 338.726 61.6858 338.213 59.7792 337.186C57.8725 336.159 56.3765 334.737 55.2912 332.918C54.2352 331.07 53.7072 328.987 53.7072 326.67C53.7072 324.353 54.2352 322.285 55.2912 320.466C56.3765 318.647 57.8725 317.225 59.7792 316.198C61.6858 315.171 63.8272 314.658 66.2032 314.658C68.6085 314.658 70.7645 315.171 72.6712 316.198C74.5778 317.225 76.0592 318.647 77.1152 320.466C78.2005 322.285 78.7432 324.353 78.7432 326.67C78.7432 328.987 78.2005 331.07 77.1152 332.918C76.0592 334.737 74.5778 336.159 72.6712 337.186C70.7645 338.213 68.6085 338.726 66.2032 338.726ZM66.2032 334.018C68.2272 334.018 69.8992 333.343 71.2192 331.994C72.5392 330.645 73.1992 328.87 73.1992 326.67C73.1992 324.47 72.5392 322.695 71.2192 321.346C69.8992 319.997 68.2272 319.322 66.2032 319.322C64.1792 319.322 62.5072 319.997 61.1872 321.346C59.8965 322.695 59.2512 324.47 59.2512 326.67C59.2512 328.87 59.8965 330.645 61.1872 331.994C62.5072 333.343 64.1792 334.018 66.2032 334.018ZM120.01 314.922L111.342 338.418H106.062L99.99 322.226L93.83 338.418H88.55L79.926 314.922H85.118L91.322 332.258L97.79 314.922H102.41L108.746 332.346L115.126 314.922H120.01ZM145.362 314.922L134.362 340.31C133.335 342.862 132.089 344.651 130.622 345.678C129.155 346.734 127.381 347.262 125.298 347.262C124.125 347.262 122.966 347.071 121.822 346.69C120.678 346.309 119.739 345.781 119.006 345.106L121.206 341.058C121.734 341.557 122.35 341.953 123.054 342.246C123.787 342.539 124.521 342.686 125.254 342.686C126.222 342.686 127.014 342.437 127.63 341.938C128.275 341.439 128.862 340.603 129.39 339.43L129.786 338.506L119.534 314.922H125.254L132.646 332.302L140.082 314.922H145.362ZM155.759 338.726C153.852 338.726 151.989 338.477 150.171 337.978C148.352 337.479 146.9 336.849 145.815 336.086L147.927 331.906C148.983 332.61 150.244 333.182 151.711 333.622C153.207 334.033 154.673 334.238 156.111 334.238C159.396 334.238 161.039 333.373 161.039 331.642C161.039 330.821 160.613 330.249 159.763 329.926C158.941 329.603 157.607 329.295 155.759 329.002C153.823 328.709 152.239 328.371 151.007 327.99C149.804 327.609 148.748 326.949 147.839 326.01C146.959 325.042 146.519 323.707 146.519 322.006C146.519 319.777 147.443 318.002 149.291 316.682C151.168 315.333 153.691 314.658 156.859 314.658C158.472 314.658 160.085 314.849 161.699 315.23C163.312 315.582 164.632 316.066 165.659 316.682L163.547 320.862C161.552 319.689 159.308 319.102 156.815 319.102C155.201 319.102 153.969 319.351 153.119 319.85C152.297 320.319 151.887 320.95 151.887 321.742C151.887 322.622 152.327 323.253 153.207 323.634C154.116 323.986 155.509 324.323 157.387 324.646C159.264 324.939 160.804 325.277 162.007 325.658C163.209 326.039 164.236 326.685 165.087 327.594C165.967 328.503 166.407 329.794 166.407 331.466C166.407 333.666 165.453 335.426 163.547 336.746C161.64 338.066 159.044 338.726 155.759 338.726ZM184.167 314.658C186.455 314.658 188.494 315.157 190.283 316.154C192.102 317.151 193.524 318.559 194.551 320.378C195.578 322.197 196.091 324.294 196.091 326.67C196.091 329.046 195.578 331.158 194.551 333.006C193.524 334.825 192.102 336.233 190.283 337.23C188.494 338.227 186.455 338.726 184.167 338.726C180.999 338.726 178.491 337.67 176.643 335.558V346.954H171.143V314.922H176.379V318.002C177.288 316.887 178.403 316.051 179.723 315.494C181.072 314.937 182.554 314.658 184.167 314.658ZM183.551 334.018C185.575 334.018 187.232 333.343 188.523 331.994C189.843 330.645 190.503 328.87 190.503 326.67C190.503 324.47 189.843 322.695 188.523 321.346C187.232 319.997 185.575 319.322 183.551 319.322C182.231 319.322 181.043 319.63 179.987 320.246C178.931 320.833 178.095 321.683 177.479 322.798C176.863 323.913 176.555 325.203 176.555 326.67C176.555 328.137 176.863 329.427 177.479 330.542C178.095 331.657 178.931 332.522 179.987 333.138C181.043 333.725 182.231 334.018 183.551 334.018ZM209.982 314.658C213.444 314.658 216.084 315.494 217.902 317.166C219.75 318.809 220.674 321.302 220.674 324.646V338.418H215.482V335.558C214.808 336.585 213.84 337.377 212.578 337.934C211.346 338.462 209.85 338.726 208.09 338.726C206.33 338.726 204.79 338.433 203.47 337.846C202.15 337.23 201.124 336.394 200.39 335.338C199.686 334.253 199.334 333.035 199.334 331.686C199.334 329.574 200.112 327.887 201.666 326.626C203.25 325.335 205.729 324.69 209.102 324.69H215.174V324.338C215.174 322.695 214.676 321.434 213.678 320.554C212.71 319.674 211.258 319.234 209.322 319.234C208.002 319.234 206.697 319.439 205.406 319.85C204.145 320.261 203.074 320.833 202.194 321.566L200.038 317.562C201.27 316.623 202.752 315.905 204.482 315.406C206.213 314.907 208.046 314.658 209.982 314.658ZM209.234 334.722C210.613 334.722 211.83 334.414 212.886 333.798C213.972 333.153 214.734 332.243 215.174 331.07V328.342H209.498C206.33 328.342 204.746 329.383 204.746 331.466C204.746 332.463 205.142 333.255 205.934 333.842C206.726 334.429 207.826 334.722 209.234 334.722ZM238.728 338.726C236.293 338.726 234.108 338.213 232.172 337.186C230.236 336.159 228.725 334.737 227.64 332.918C226.555 331.07 226.012 328.987 226.012 326.67C226.012 324.353 226.555 322.285 227.64 320.466C228.725 318.647 230.221 317.225 232.128 316.198C234.064 315.171 236.264 314.658 238.728 314.658C241.045 314.658 243.069 315.127 244.8 316.066C246.56 317.005 247.88 318.354 248.76 320.114L244.536 322.578C243.861 321.493 243.011 320.686 241.984 320.158C240.987 319.601 239.887 319.322 238.684 319.322C236.631 319.322 234.929 319.997 233.58 321.346C232.231 322.666 231.556 324.441 231.556 326.67C231.556 328.899 232.216 330.689 233.536 332.038C234.885 333.358 236.601 334.018 238.684 334.018C239.887 334.018 240.987 333.754 241.984 333.226C243.011 332.669 243.861 331.847 244.536 330.762L248.76 333.226C247.851 334.986 246.516 336.35 244.756 337.318C243.025 338.257 241.016 338.726 238.728 338.726ZM275.259 326.802C275.259 327.183 275.229 327.726 275.171 328.43H256.735C257.057 330.161 257.893 331.539 259.243 332.566C260.621 333.563 262.323 334.062 264.347 334.062C266.928 334.062 269.055 333.211 270.727 331.51L273.675 334.898C272.619 336.159 271.284 337.113 269.671 337.758C268.057 338.403 266.239 338.726 264.215 338.726C261.633 338.726 259.36 338.213 257.395 337.186C255.429 336.159 253.904 334.737 252.819 332.918C251.763 331.07 251.235 328.987 251.235 326.67C251.235 324.382 251.748 322.329 252.775 320.51C253.831 318.662 255.283 317.225 257.131 316.198C258.979 315.171 261.061 314.658 263.379 314.658C265.667 314.658 267.705 315.171 269.495 316.198C271.313 317.195 272.721 318.618 273.719 320.466C274.745 322.285 275.259 324.397 275.259 326.802ZM263.379 319.058C261.619 319.058 260.123 319.586 258.891 320.642C257.688 321.669 256.955 323.047 256.691 324.778H270.023C269.788 323.077 269.069 321.698 267.867 320.642C266.664 319.586 265.168 319.058 263.379 319.058Z" fill="black"/>
<path d="M281.665 0.585938H0.226074V281.748H281.665V0.585938Z" stroke="black" stroke-width="0.5" stroke-miterlimit="10"/>
<path d="M282.009 0H0.307617V281.424H282.009V0Z" fill="#332960"/>
<path d="M282 176.41C251.615 130.426 175.979 124.87 175.979 124.87L183.023 113.297C269.9 144.537 270.009 155.622 282 166.102V176.41Z" fill="#F4FAFC"/>
<path d="M65.6256 79.7085C63.0212 74.2699 64.866 72.2101 64.866 72.2101C64.866 72.2101 67.4704 67.8014 70.4004 68.3886C73.3394 68.9759 73.3394 66.627 73.3394 66.627C73.3394 66.627 74.515 63.6909 70.4004 63.1127C66.2948 62.5255 63.9798 65.5609 63.9798 65.5609C64.016 63.9077 63.9798 62.0918 63.9798 62.0918C63.5276 53.3106 60.0732 54.6567 60.0732 54.6567C55.4431 56.066 58.0746 61.342 58.0746 61.342C58.0746 61.342 56.4378 57.2043 55.7234 54.8916C55.0181 52.5788 54.5478 51.9013 53.3722 51.9555C52.1966 52.0187 51.4913 53.1028 51.021 55.4698C50.5598 57.8458 52.7844 61.9202 52.7844 61.9202C51.3737 57.2947 48.6789 57.2314 48.6789 57.2314C48.6789 57.2314 46.3277 56.057 46.3277 60.1675C46.3277 64.2781 49.8454 67.2052 49.8454 67.2052C49.8454 67.2052 46.3277 61.9292 43.9764 61.342C41.6252 60.7548 41.0374 61.9292 41.0374 61.9292C41.0374 61.9292 38.6862 64.2781 42.8008 68.9668C46.9155 73.6556 48.6698 77.7661 48.6698 77.7661C50.4332 82.4549 55.633 84.9844 55.633 84.9844L55.3436 84.6954C55.3436 84.6954 50.6503 89.3841 53.5802 93.4946C68.6279 114.535 76.1789 113.144 76.1789 113.144C67.3709 123.696 68.5465 142.469 68.5465 142.469C58.572 150.681 57.3964 168.858 57.3964 168.858C57.3964 168.858 53.8786 190.558 62.6776 206.973C71.4765 223.388 84.1007 230.01 84.1007 230.01C82.3373 235.747 84.1007 238.349 84.1007 238.349C92.9086 247.148 105.822 241.285 105.822 241.285C105.822 244.799 108.761 252.424 119.911 251.837C131.061 251.25 130.474 236.587 135.764 223.099C141.045 209.611 112.288 208.437 112.288 208.437C119.92 204.913 112.288 199.646 112.288 199.646C165.118 187.333 163.354 162.118 163.354 162.118C164.033 169.111 166.619 179.979 166.872 190.856C167.279 208.238 165.109 225.457 165.109 225.457C165.109 225.457 163.345 230.733 163.345 239.532C163.345 248.332 166.863 247.157 166.863 247.157C171.556 245.983 170.969 240.707 170.969 240.707C170.969 240.707 170.969 244.221 171.556 246.57C172.144 248.919 173.908 249.506 175.074 249.506C176.241 249.506 177.425 248.919 178.013 246.57C178.601 244.221 177.425 240.119 177.425 240.119C178.601 244.808 180.943 244.221 180.943 244.221C183.882 243.634 185.049 241.285 183.882 238.358C182.571 235.087 179.777 231.907 179.777 231.907C179.777 231.907 183.882 231.32 184.47 222.521C184.832 217.073 198.026 176.284 203.253 159.191C206.463 148.694 209.049 134.682 208.832 131.339C208.244 122.54 191.813 110.226 191.813 110.226C194.445 109.557 199.825 107.552 204.139 104.363C206.87 102.339 210.143 98.9513 212.947 92.6364C216.193 85.3097 215.153 80.1512 214.71 76.2123C213.363 64.4136 204.898 43.915 186.532 33.9865C184.054 32.6494 170.571 25.9731 148.062 35.6939C127.309 44.6558 119.287 60.9174 117.551 63.6005C113.093 70.4755 114.612 78.263 114.612 78.263C87.0216 75.3269 70.2919 84.4243 65.8879 80.0247L65.6256 79.7085Z" fill="#F3F8EF"/>
<path d="M120.798 78.5342C120.798 78.5342 119.034 55.0814 146.625 41.5934C146.625 41.5934 182.435 38.6573 200.042 65.0461C200.042 65.0461 195.937 83.2229 178.321 100.821C178.33 100.821 152.494 79.7086 120.798 78.5342Z" fill="#171530"/>
<path d="M186.849 34.1328C205.685 44.4137 213.58 63.1597 215.135 75.0757C215.651 79.0417 216.438 85.727 213.245 93.0718C210.496 99.3958 206.029 103.335 203.28 105.331C198.939 108.484 194.68 109.848 192.012 110.481L183.023 103.759C183.023 103.759 200.856 99.1609 204.745 79.7193C210.189 52.4722 186.849 34.1328 186.849 34.1328Z" fill="#B7B1D8"/>
<path d="M208.851 130.727C208.851 130.727 205.007 140.52 201.806 153.014C197.791 168.688 191.84 190.524 185.953 206.966C181.785 218.62 179.488 226.417 175.897 229.434C175.897 229.434 173.809 231.9 169.432 232.099C169.432 232.099 180.546 235.171 183.204 229.109C185.863 223.047 193.929 190.587 195.865 184.552C197.791 178.526 205.631 157.368 207.892 142.408C210.153 127.447 208.851 130.727 208.851 130.727Z" fill="#B7B1D8"/>
<path d="M160.714 135.422C160.714 135.422 160.714 145.974 163.354 162.1C165.995 178.226 138.992 194.063 112.288 199.628C112.288 199.628 124.324 172.95 106.121 166.499C106.121 166.499 146.914 190.765 160.714 135.422Z" fill="#B7B1D8"/>
<path d="M105.831 241.267C105.831 241.267 107.884 234.528 109.06 228.655C109.06 228.655 72.0824 216.929 79.7057 178.227C79.7057 178.227 68.2843 216.568 102.467 232.874C102.467 232.874 104.466 242.198 87.103 240.707C87.0939 240.707 93.7948 246.254 105.831 241.267Z" fill="#B7B1D8"/>
<path d="M53.291 93.1953C53.291 93.1953 70.8979 111.372 87.9261 103.16C87.9261 103.16 80.8815 107.262 76.1881 113.125C76.1881 113.134 68.6281 116.395 53.291 93.1953Z" fill="#B7B1D8"/>
<path d="M129.669 75.0655C129.669 75.0655 127.86 60.2856 141.343 49.2188L144.861 78.5437C144.87 78.5347 138.992 75.6076 129.669 75.0655Z" fill="#F9F9E0"/>
</g>
<defs>
<clipPath id="clip0">
<rect width="282" height="375" fill="white"/>
</clipPath>
</defs>
</svg>
