<svg width="305" height="305" viewBox="0 0 305 305" fill="none" xmlns="http://www.w3.org/2000/svg">
<g clip-path="url(#clip0)">
<path d="M305.196 0.0546875H0.115723V305.135H305.196V0.0546875Z" fill="#332960"/>
<path d="M74 20L12 193.347L57.9324 194L74 95V69V20Z" fill="#B7B1D8"/>
<path d="M226 95L252.013 194H294L226 20V95Z" fill="#B7B1D8"/>
<path d="M294 194H12V305H294V194Z" fill="#F3F8EF"/>
<path d="M204.795 213H101.205C93.912 213 88 218.916 88 226.215V262.785C88 270.084 93.912 276 101.205 276H204.795C212.088 276 218 270.084 218 262.785V226.215C218 218.916 212.088 213 204.795 213Z" fill="#171530"/>
<path d="M203.874 217H102.126C96.5335 217 92 221.559 92 227.183V261.817C92 267.441 96.5335 272 102.126 272H203.874C209.466 272 214 267.441 214 261.817V227.183C214 221.559 209.466 217 203.874 217Z" fill="#F3F8EF"/>
<path d="M226 20H74V95H226V20Z" fill="#B7B1D8"/>
<path d="M104 234H205" stroke="#161523" stroke-width="2"/>
<path d="M104 251L205 252" stroke="#171530" stroke-width="2"/>
<path d="M72 184L89.9862 66L208.583 66.8806L235 183.119L72 184Z" fill="#F3F8EF"/>
</g>
<defs>
<clipPath id="clip0">
<rect width="305" height="305" fill="white"/>
</clipPath>
</defs>
</svg>
