<svg width="131" height="131" viewBox="0 0 131 131" fill="none" xmlns="http://www.w3.org/2000/svg">
<circle cx="65.5" cy="65.5" r="65.5" fill="#C4C4C4" fill-opacity="0.7"/>
<circle cx="65.5" cy="65.5" r="63" stroke="white" stroke-width="5" stroke-dasharray="15 15"/>
<path d="M24.0506 61.26C22.2133 61.26 20.5493 60.8613 19.0586 60.064C17.5853 59.2493 16.424 58.1313 15.5746 56.71C14.7426 55.2887 14.3266 53.6853 14.3266 51.9C14.3266 50.1147 14.7513 48.5113 15.6006 47.09C16.45 45.6687 17.6113 44.5593 19.0846 43.762C20.5753 42.9473 22.2393 42.54 24.0766 42.54C25.5673 42.54 26.928 42.8 28.1586 43.32C29.3893 43.84 30.4293 44.594 31.2786 45.582L29.0946 47.636C27.7773 46.2147 26.1566 45.504 24.2326 45.504C22.9846 45.504 21.8666 45.7813 20.8786 46.336C19.8906 46.8733 19.1193 47.6273 18.5646 48.598C18.01 49.5687 17.7326 50.6693 17.7326 51.9C17.7326 53.1307 18.01 54.2313 18.5646 55.202C19.1193 56.1727 19.8906 56.9353 20.8786 57.49C21.8666 58.0273 22.9846 58.296 24.2326 58.296C26.1566 58.296 27.7773 57.5767 29.0946 56.138L31.2786 58.218C30.4293 59.206 29.3806 59.96 28.1326 60.48C26.902 61 25.5413 61.26 24.0506 61.26ZM42.0832 46.96C43.8339 46.96 45.2379 47.4713 46.2952 48.494C47.3526 49.5167 47.8812 51.0333 47.8812 53.044V61H44.6312V53.46C44.6312 52.2467 44.3452 51.3367 43.7732 50.73C43.2012 50.106 42.3866 49.794 41.3292 49.794C40.1332 49.794 39.1886 50.158 38.4952 50.886C37.8019 51.5967 37.4552 52.628 37.4552 53.98V61H34.2052V41.708H37.4552V48.728C37.9926 48.156 38.6512 47.7227 39.4312 47.428C40.2286 47.116 41.1126 46.96 42.0832 46.96ZM57.3081 46.96C59.3534 46.96 60.9134 47.454 61.9881 48.442C63.0801 49.4127 63.6261 50.886 63.6261 52.862V61H60.5581V59.31C60.1594 59.9167 59.5874 60.3847 58.8421 60.714C58.1141 61.026 57.2301 61.182 56.1901 61.182C55.1501 61.182 54.2401 61.0087 53.4601 60.662C52.6801 60.298 52.0734 59.804 51.6401 59.18C51.2241 58.5387 51.0161 57.8193 51.0161 57.022C51.0161 55.774 51.4754 54.7773 52.3941 54.032C53.3301 53.2693 54.7947 52.888 56.7881 52.888H60.3761V52.68C60.3761 51.7093 60.0814 50.964 59.4921 50.444C58.9201 49.924 58.0621 49.664 56.9181 49.664C56.1381 49.664 55.3667 49.7853 54.6041 50.028C53.8587 50.2707 53.2261 50.6087 52.7061 51.042L51.4321 48.676C52.1601 48.1213 53.0354 47.6967 54.0581 47.402C55.0807 47.1073 56.1641 46.96 57.3081 46.96ZM56.8661 58.816C57.6807 58.816 58.4001 58.634 59.0241 58.27C59.6654 57.8887 60.1161 57.3513 60.3761 56.658V55.046H57.0221C55.1501 55.046 54.2141 55.6613 54.2141 56.892C54.2141 57.4813 54.4481 57.9493 54.9161 58.296C55.3841 58.6427 56.0341 58.816 56.8661 58.816ZM75.675 46.96C77.4257 46.96 78.8297 47.4713 79.887 48.494C80.9444 49.5167 81.473 51.0333 81.473 53.044V61H78.223V53.46C78.223 52.2467 77.937 51.3367 77.365 50.73C76.793 50.106 75.9784 49.794 74.921 49.794C73.725 49.794 72.7804 50.158 72.087 50.886C71.3937 51.5967 71.047 52.628 71.047 53.98V61H67.797V47.116H70.891V48.91C71.4284 48.2687 72.1044 47.7833 72.919 47.454C73.7337 47.1247 74.6524 46.96 75.675 46.96ZM99.5028 47.116V58.894C99.5028 63.782 97.0068 66.226 92.0148 66.226C90.6802 66.226 89.4148 66.0527 88.2188 65.706C87.0228 65.3767 86.0348 64.8913 85.2548 64.25L86.7108 61.806C87.3175 62.3087 88.0802 62.7073 88.9988 63.002C89.9348 63.314 90.8795 63.47 91.8328 63.47C93.3582 63.47 94.4762 63.1233 95.1868 62.43C95.8975 61.7367 96.2528 60.6793 96.2528 59.258V58.53C95.6982 59.1367 95.0222 59.596 94.2248 59.908C93.4275 60.22 92.5522 60.376 91.5988 60.376C90.2815 60.376 89.0855 60.0987 88.0108 59.544C86.9535 58.972 86.1128 58.1747 85.4888 57.152C84.8822 56.1293 84.5788 54.9593 84.5788 53.642C84.5788 52.3247 84.8822 51.1633 85.4888 50.158C86.1128 49.1353 86.9535 48.3467 88.0108 47.792C89.0855 47.2373 90.2815 46.96 91.5988 46.96C92.6042 46.96 93.5142 47.1247 94.3288 47.454C95.1608 47.7833 95.8542 48.286 96.4088 48.962V47.116H99.5028ZM92.0928 57.62C93.3235 57.62 94.3288 57.256 95.1088 56.528C95.9062 55.7827 96.3048 54.8207 96.3048 53.642C96.3048 52.4807 95.9062 51.536 95.1088 50.808C94.3288 50.08 93.3235 49.716 92.0928 49.716C90.8448 49.716 89.8222 50.08 89.0248 50.808C88.2448 51.536 87.8548 52.4807 87.8548 53.642C87.8548 54.8207 88.2448 55.7827 89.0248 56.528C89.8222 57.256 90.8448 57.62 92.0928 57.62ZM116.828 54.136C116.828 54.3613 116.81 54.682 116.776 55.098H105.882C106.072 56.1207 106.566 56.9353 107.364 57.542C108.178 58.1313 109.184 58.426 110.38 58.426C111.905 58.426 113.162 57.9233 114.15 56.918L115.892 58.92C115.268 59.6653 114.479 60.2287 113.526 60.61C112.572 60.9913 111.498 61.182 110.302 61.182C108.776 61.182 107.433 60.8787 106.272 60.272C105.11 59.6653 104.209 58.8247 103.568 57.75C102.944 56.658 102.632 55.4273 102.632 54.058C102.632 52.706 102.935 51.4927 103.542 50.418C104.166 49.326 105.024 48.4767 106.116 47.87C107.208 47.2633 108.438 46.96 109.808 46.96C111.16 46.96 112.364 47.2633 113.422 47.87C114.496 48.4593 115.328 49.3 115.918 50.392C116.524 51.4667 116.828 52.7147 116.828 54.136ZM109.808 49.56C108.768 49.56 107.884 49.872 107.156 50.496C106.445 51.1027 106.012 51.9173 105.856 52.94H113.734C113.595 51.9347 113.17 51.12 112.46 50.496C111.749 49.872 110.865 49.56 109.808 49.56ZM27.2382 72.96C28.5902 72.96 29.7948 73.2547 30.8522 73.844C31.9268 74.4333 32.7675 75.2653 33.3742 76.34C33.9808 77.4147 34.2842 78.654 34.2842 80.058C34.2842 81.462 33.9808 82.71 33.3742 83.802C32.7675 84.8767 31.9268 85.7087 30.8522 86.298C29.7948 86.8873 28.5902 87.182 27.2382 87.182C25.3662 87.182 23.8842 86.558 22.7922 85.31V92.044H19.5422V73.116H22.6362V74.936C23.1735 74.2773 23.8322 73.7833 24.6122 73.454C25.4095 73.1247 26.2848 72.96 27.2382 72.96ZM26.8742 84.4C28.0702 84.4 29.0495 84.0013 29.8122 83.204C30.5922 82.4067 30.9822 81.358 30.9822 80.058C30.9822 78.758 30.5922 77.7093 29.8122 76.912C29.0495 76.1147 28.0702 75.716 26.8742 75.716C26.0942 75.716 25.3922 75.898 24.7682 76.262C24.1442 76.6087 23.6502 77.1113 23.2862 77.77C22.9222 78.4287 22.7402 79.1913 22.7402 80.058C22.7402 80.9247 22.9222 81.6873 23.2862 82.346C23.6502 83.0047 24.1442 83.516 24.7682 83.88C25.3922 84.2267 26.0942 84.4 26.8742 84.4ZM37.3664 73.116H40.6164V87H37.3664V73.116ZM39.0044 70.828C38.415 70.828 37.921 70.646 37.5224 70.282C37.1237 69.9007 36.9244 69.4327 36.9244 68.878C36.9244 68.3233 37.1237 67.864 37.5224 67.5C37.921 67.1187 38.415 66.928 39.0044 66.928C39.5937 66.928 40.0877 67.11 40.4864 67.474C40.885 67.8207 41.0844 68.2627 41.0844 68.8C41.0844 69.372 40.885 69.8573 40.4864 70.256C40.105 70.6373 39.611 70.828 39.0044 70.828ZM51.252 87.182C49.8133 87.182 48.522 86.8787 47.378 86.272C46.234 85.6653 45.3413 84.8247 44.7 83.75C44.0587 82.658 43.738 81.4273 43.738 80.058C43.738 78.6887 44.0587 77.4667 44.7 76.392C45.3413 75.3173 46.2253 74.4767 47.352 73.87C48.496 73.2633 49.796 72.96 51.252 72.96C52.6213 72.96 53.8173 73.2373 54.84 73.792C55.88 74.3467 56.66 75.144 57.18 76.184L54.684 77.64C54.2853 76.9987 53.7827 76.522 53.176 76.21C52.5867 75.8807 51.9367 75.716 51.226 75.716C50.0127 75.716 49.0073 76.1147 48.21 76.912C47.4127 77.692 47.014 78.7407 47.014 80.058C47.014 81.3753 47.404 82.4327 48.184 83.23C48.9813 84.01 49.9953 84.4 51.226 84.4C51.9367 84.4 52.5867 84.244 53.176 83.932C53.7827 83.6027 54.2853 83.1173 54.684 82.476L57.18 83.932C56.6427 84.972 55.854 85.778 54.814 86.35C53.7913 86.9047 52.604 87.182 51.252 87.182ZM68.5132 86.246C68.1318 86.558 67.6638 86.792 67.1092 86.948C66.5718 87.104 65.9998 87.182 65.3932 87.182C63.8678 87.182 62.6892 86.7833 61.8572 85.986C61.0252 85.1887 60.6092 84.0273 60.6092 82.502V75.82H58.3212V73.22H60.6092V70.048H63.8592V73.22H67.5772V75.82H63.8592V82.424C63.8592 83.1 64.0238 83.62 64.3532 83.984C64.6825 84.3307 65.1592 84.504 65.7832 84.504C66.5112 84.504 67.1178 84.3133 67.6032 83.932L68.5132 86.246ZM84.6287 73.116V87H81.5347V85.232C81.0147 85.856 80.3647 86.3413 79.5847 86.688C78.8047 87.0173 77.964 87.182 77.0627 87.182C75.208 87.182 73.7434 86.6707 72.6687 85.648C71.6114 84.608 71.0827 83.074 71.0827 81.046V73.116H74.3327V80.604C74.3327 81.852 74.61 82.788 75.1647 83.412C75.7367 84.0187 76.5427 84.322 77.5827 84.322C78.744 84.322 79.6627 83.9667 80.3387 83.256C81.032 82.528 81.3787 81.488 81.3787 80.136V73.116H84.6287ZM91.978 75.144C92.914 73.688 94.5606 72.96 96.918 72.96V76.054C96.6406 76.002 96.3893 75.976 96.164 75.976C94.8986 75.976 93.9106 76.3487 93.2 77.094C92.4893 77.822 92.134 78.8793 92.134 80.266V87H88.884V73.116H91.978V75.144ZM112.6 80.136C112.6 80.3613 112.583 80.682 112.548 81.098H101.654C101.845 82.1207 102.339 82.9353 103.136 83.542C103.951 84.1313 104.956 84.426 106.152 84.426C107.677 84.426 108.934 83.9233 109.922 82.918L111.664 84.92C111.04 85.6653 110.251 86.2287 109.298 86.61C108.345 86.9913 107.27 87.182 106.074 87.182C104.549 87.182 103.205 86.8787 102.044 86.272C100.883 85.6653 99.9813 84.8247 99.34 83.75C98.716 82.658 98.404 81.4273 98.404 80.058C98.404 78.706 98.7073 77.4927 99.314 76.418C99.938 75.326 100.796 74.4767 101.888 73.87C102.98 73.2633 104.211 72.96 105.58 72.96C106.932 72.96 108.137 73.2633 109.194 73.87C110.269 74.4593 111.101 75.3 111.69 76.392C112.297 77.4667 112.6 78.7147 112.6 80.136ZM105.58 75.56C104.54 75.56 103.656 75.872 102.928 76.496C102.217 77.1027 101.784 77.9173 101.628 78.94H109.506C109.367 77.9347 108.943 77.12 108.232 76.496C107.521 75.872 106.637 75.56 105.58 75.56Z" fill="white"/>
</svg>
